<svg width="361" height="64" viewBox="0 0 361 64" fill="none" xmlns="http://www.w3.org/2000/svg">
<path fill-rule="evenodd" clip-rule="evenodd" d="M29.7176 56.8268C24.0349 56.8268 18.9112 55.6157 14.4396 53.1936C9.87482 50.7715 6.33479 47.5109 3.8195 43.2256C1.30422 38.9403 0 34.1892 0 28.786C0 23.3828 1.30422 18.5386 3.8195 14.3464C6.33479 10.1543 9.87482 6.80058 14.4396 4.37846C18.9112 1.95633 24.0349 0.74527 29.7176 0.74527C35.4003 0.74527 40.524 1.95633 44.9956 4.37846C49.4673 6.80058 53.0073 10.0611 55.5226 14.3464C58.0378 18.6317 59.3421 23.3828 59.3421 28.786C59.3421 34.1892 58.0378 39.0335 55.5226 43.2256C52.9141 47.5109 49.3741 50.7715 44.9025 53.1936C40.4309 55.6157 35.4003 56.8268 29.7176 56.8268ZM29.7176 43.8777C33.7234 43.8777 36.984 42.4804 39.5924 39.7788C42.2009 37.0771 43.4119 33.3508 43.4119 28.786C43.4119 24.2213 42.1077 20.5881 39.5924 17.7933C36.984 15.0917 33.7234 13.6943 29.7176 13.6943C25.7118 13.6943 22.3581 15.0917 19.7496 17.7933C17.1412 20.4949 15.837 24.2213 15.837 28.786C15.837 33.3508 17.1412 36.984 19.7496 39.7788C22.3581 42.4804 25.7118 43.8777 29.7176 43.8777Z" fill="#262626"/>
<path fill-rule="evenodd" clip-rule="evenodd" d="M93.2518 0C90.1775 0 87.0101 0.465793 83.9359 1.39738V19.0975C85.3333 17.1412 88.5938 13.7875 93.6244 13.8806C97.2576 13.9738 99.866 15.1849 102.288 17.607C104.431 19.7496 105.362 22.917 105.362 27.2023V55.8952H121.199V24.8734C121.199 4.47162 103.872 0 93.2518 0Z" fill="#262626"/>
<path fill-rule="evenodd" clip-rule="evenodd" d="M182.032 28.9723C182.032 29.1587 181.939 30.556 181.753 33.2576H140.949C141.694 36.6114 143.464 39.313 146.166 41.2693C148.867 43.2256 152.314 44.1572 156.413 44.1572C159.208 44.1572 161.723 43.6914 163.866 42.853C166.009 42.0146 168.058 40.7103 169.921 38.8472L178.212 47.9767C173.089 53.8457 165.729 56.7336 155.948 56.7336C149.892 56.7336 144.489 55.5226 139.831 53.1004C135.173 50.6783 131.54 47.4178 129.025 43.1325C126.509 38.8472 125.205 34.0961 125.205 28.6929C125.205 23.3828 126.416 18.5386 128.932 14.2533C131.447 9.96798 134.894 6.61427 139.272 4.2853C143.651 1.86318 148.588 0.652115 153.991 0.652115C159.301 0.652115 164.052 1.77002 168.338 4.09899C172.623 6.42795 175.977 9.68851 178.399 13.9738C180.821 18.3523 182.032 23.2897 182.032 28.9723ZM153.991 12.6696C150.451 12.6696 147.47 13.6943 145.048 15.7438C142.626 17.7933 141.135 20.4949 140.67 24.0349H167.22C166.661 20.5881 165.17 17.8865 162.841 15.837C160.419 13.6943 157.531 12.6696 153.991 12.6696Z" fill="#262626"/>
<path d="M81.3275 0V55.9884H65.4906V15.837H60.1805C59.901 15.837 59.7147 15.6507 59.7147 15.3712V10.2475C59.7147 9.6885 59.9942 9.22271 60.46 8.94323L77.2285 0H81.3275Z" fill="#D10001"/>
<path d="M208.396 19.8428L194.608 59.2489H201.968L215.755 19.8428H208.396Z" fill="#D10001"/>
<path d="M231.6 34.16C233.6 34.16 235.413 34.6267 237.04 35.56C238.693 36.4667 239.987 37.76 240.92 39.44C241.853 41.0933 242.32 43.0267 242.32 45.24C242.32 47.4533 241.853 49.4 240.92 51.08C239.987 52.7333 238.693 54.0267 237.04 54.96C235.413 55.8667 233.6 56.32 231.6 56.32C228.853 56.32 226.693 55.4533 225.12 53.72V63.76H218.88V34.48H224.84V36.96C226.387 35.0933 228.64 34.16 231.6 34.16ZM230.52 51.2C232.12 51.2 233.427 50.6667 234.44 49.6C235.48 48.5067 236 47.0533 236 45.24C236 43.4267 235.48 41.9867 234.44 40.92C233.427 39.8267 232.12 39.28 230.52 39.28C228.92 39.28 227.6 39.8267 226.56 40.92C225.547 41.9867 225.04 43.4267 225.04 45.24C225.04 47.0533 225.547 48.5067 226.56 49.6C227.6 50.6667 228.92 51.2 230.52 51.2Z" fill="#262626"/>
<path d="M256.737 56.32C254.471 56.32 252.431 55.8533 250.617 54.92C248.831 53.96 247.431 52.64 246.417 50.96C245.404 49.28 244.897 47.3733 244.897 45.24C244.897 43.1067 245.404 41.2 246.417 39.52C247.431 37.84 248.831 36.5333 250.617 35.6C252.431 34.64 254.471 34.16 256.737 34.16C259.004 34.16 261.031 34.64 262.817 35.6C264.604 36.5333 266.004 37.84 267.017 39.52C268.031 41.2 268.537 43.1067 268.537 45.24C268.537 47.3733 268.031 49.28 267.017 50.96C266.004 52.64 264.604 53.96 262.817 54.92C261.031 55.8533 259.004 56.32 256.737 56.32ZM256.737 51.2C258.337 51.2 259.644 50.6667 260.657 49.6C261.697 48.5067 262.217 47.0533 262.217 45.24C262.217 43.4267 261.697 41.9867 260.657 40.92C259.644 39.8267 258.337 39.28 256.737 39.28C255.137 39.28 253.817 39.8267 252.777 40.92C251.737 41.9867 251.217 43.4267 251.217 45.24C251.217 47.0533 251.737 48.5067 252.777 49.6C253.817 50.6667 255.137 51.2 256.737 51.2Z" fill="#262626"/>
<path d="M278.668 37.32C279.415 36.28 280.415 35.4933 281.668 34.96C282.948 34.4267 284.415 34.16 286.068 34.16V39.92C285.375 39.8667 284.908 39.84 284.668 39.84C282.881 39.84 281.481 40.3467 280.468 41.36C279.455 42.3467 278.948 43.84 278.948 45.84V56H272.708V34.48H278.668V37.32Z" fill="#262626"/>
<path d="M304.401 54.96C303.787 55.4133 303.027 55.76 302.121 56C301.241 56.2133 300.307 56.32 299.321 56.32C296.761 56.32 294.774 55.6667 293.361 54.36C291.974 53.0533 291.281 51.1333 291.281 48.6V39.76H287.961V34.96H291.281V29.72H297.521V34.96H302.881V39.76H297.521V48.52C297.521 49.4267 297.747 50.1333 298.201 50.64C298.681 51.12 299.347 51.36 300.201 51.36C301.187 51.36 302.027 51.0933 302.721 50.56L304.401 54.96Z" fill="#262626"/>
<path d="M316.583 34.16C319.917 34.16 322.477 34.96 324.263 36.56C326.05 38.1333 326.943 40.52 326.943 43.72V56H321.103V53.32C319.93 55.32 317.743 56.32 314.543 56.32C312.89 56.32 311.45 56.04 310.223 55.48C309.023 54.92 308.103 54.1467 307.463 53.16C306.823 52.1733 306.503 51.0533 306.503 49.8C306.503 47.8 307.25 46.2267 308.743 45.08C310.263 43.9333 312.597 43.36 315.743 43.36H320.703C320.703 42 320.29 40.96 319.463 40.24C318.637 39.4933 317.397 39.12 315.743 39.12C314.597 39.12 313.463 39.3067 312.343 39.68C311.25 40.0267 310.317 40.5067 309.543 41.12L307.303 36.76C308.477 35.9333 309.877 35.2933 311.503 34.84C313.157 34.3867 314.85 34.16 316.583 34.16ZM316.103 52.12C317.17 52.12 318.117 51.88 318.943 51.4C319.77 50.8933 320.357 50.16 320.703 49.2V47H316.423C313.863 47 312.583 47.84 312.583 49.52C312.583 50.32 312.89 50.96 313.503 51.44C314.143 51.8933 315.01 52.12 316.103 52.12Z" fill="#262626"/>
<path d="M332.591 26.32H338.831V56H332.591V26.32Z" fill="#262626"/>
</svg>
