<svg width="81" height="25" viewBox="0 0 81 25" fill="none" xmlns="http://www.w3.org/2000/svg">
<path d="M8.49359 5.23504C9.82906 5.23504 11.0399 5.54665 12.1261 6.16987C13.2301 6.77528 14.0937 7.63889 14.7169 8.76068C15.3401 9.86467 15.6517 11.1556 15.6517 12.6335C15.6517 14.1115 15.3401 15.4113 14.7169 16.5331C14.0937 17.6371 13.2301 18.5007 12.1261 19.1239C11.0399 19.7293 9.82906 20.032 8.49359 20.032C6.65954 20.032 5.21724 19.4533 4.16667 18.2959V25H0V5.44872H3.9797V7.1047C5.01246 5.85826 6.51709 5.23504 8.49359 5.23504ZM7.77244 16.6132C8.84081 16.6132 9.71332 16.2571 10.39 15.5449C11.0844 14.8148 11.4316 13.8444 11.4316 12.6335C11.4316 11.4227 11.0844 10.4612 10.39 9.74893C9.71332 9.01888 8.84081 8.65385 7.77244 8.65385C6.70406 8.65385 5.82265 9.01888 5.1282 9.74893C4.45157 10.4612 4.11325 11.4227 4.11325 12.6335C4.11325 13.8444 4.45157 14.8148 5.1282 15.5449C5.82265 16.2571 6.70406 16.6132 7.77244 16.6132Z" fill="black"/>
<path d="M25.2786 20.032C23.765 20.032 22.4029 19.7204 21.192 19.0972C19.999 18.4562 19.0642 17.5748 18.3875 16.453C17.7109 15.3312 17.3726 14.058 17.3726 12.6335C17.3726 11.209 17.7109 9.9359 18.3875 8.8141C19.0642 7.69231 19.999 6.8198 21.192 6.19658C22.4029 5.55556 23.765 5.23504 25.2786 5.23504C26.7921 5.23504 28.1454 5.55556 29.3384 6.19658C30.5314 6.8198 31.4662 7.69231 32.1429 8.8141C32.8195 9.9359 33.1578 11.209 33.1578 12.6335C33.1578 14.058 32.8195 15.3312 32.1429 16.453C31.4662 17.5748 30.5314 18.4562 29.3384 19.0972C28.1454 19.7204 26.7921 20.032 25.2786 20.032ZM25.2786 16.6132C26.3469 16.6132 27.2195 16.2571 27.8961 15.5449C28.5905 14.8148 28.9378 13.8444 28.9378 12.6335C28.9378 11.4227 28.5905 10.4612 27.8961 9.74893C27.2195 9.01888 26.3469 8.65385 25.2786 8.65385C24.2102 8.65385 23.3288 9.01888 22.6343 9.74893C21.9399 10.4612 21.5927 11.4227 21.5927 12.6335C21.5927 13.8444 21.9399 14.8148 22.6343 15.5449C23.3288 16.2571 24.2102 16.6132 25.2786 16.6132Z" fill="black"/>
<path d="M57.1051 19.1239C56.6956 19.4266 56.1881 19.6581 55.5827 19.8184C54.9951 19.9608 54.3718 20.032 53.713 20.032C52.0036 20.032 50.677 19.5958 49.7333 18.7233C48.8074 17.8508 48.3444 16.5687 48.3444 14.8771V8.97436H46.1275V5.76923H48.3444V2.2703H52.5111V5.76923H56.0902V8.97436H52.5111V14.8237C52.5111 15.4291 52.6624 15.901 52.9652 16.2393C53.2857 16.5598 53.7308 16.7201 54.3006 16.7201C54.9595 16.7201 55.5204 16.542 55.9833 16.1859L57.1051 19.1239Z" fill="black"/>
<path d="M65.24 5.23504C67.4658 5.23504 69.1752 5.76923 70.3682 6.83761C71.5612 7.88818 72.1577 9.48184 72.1577 11.6186V19.8184H68.2582V18.0288C67.4747 19.3643 66.0146 20.032 63.8778 20.032C62.7738 20.032 61.8123 19.8451 60.9932 19.4712C60.1919 19.0972 59.5776 18.5808 59.1503 17.922C58.7229 17.2632 58.5092 16.5153 58.5092 15.6784C58.5092 14.3429 59.0078 13.2924 60.005 12.5267C61.0199 11.761 62.578 11.3782 64.6791 11.3782H67.9911C67.9911 10.4701 67.7151 9.77564 67.1631 9.29487C66.6111 8.7963 65.7831 8.54701 64.6791 8.54701C63.9134 8.54701 63.1567 8.67165 62.4088 8.92094C61.6787 9.15242 61.0555 9.47293 60.5391 9.88248L59.0434 6.97115C59.8269 6.41916 60.7617 5.99181 61.8479 5.6891C62.9519 5.3864 64.0826 5.23504 65.24 5.23504ZM64.9195 17.2276C65.6317 17.2276 66.2639 17.0673 66.8159 16.7468C67.3679 16.4085 67.7596 15.9188 67.9911 15.2778V13.8088H65.1332C63.4238 13.8088 62.5691 14.3697 62.5691 15.4915C62.5691 16.0256 62.7738 16.453 63.1834 16.7735C63.6107 17.0762 64.1894 17.2276 64.9195 17.2276Z" fill="black"/>
<path d="M75.9288 0H80.0954V19.8184H75.9288V0Z" fill="black"/>
<path d="M39.9624 4.68311V19.8184H36.0478V8.59767H34.7196C34.6497 8.59767 34.5798 8.52776 34.5798 8.45786V7.19961C34.5798 7.05981 34.6497 6.92 34.7895 6.92L38.9138 4.68311H39.9624Z" fill="#D10001"/>
<path fill-rule="evenodd" clip-rule="evenodd" d="M40.5984 10.7432C40.7421 10.478 40.9176 10.2445 41.1248 10.0428C41.8014 9.36616 42.7363 9.02784 43.9293 9.02784C44.0895 9.02784 44.4012 9.04565 44.8641 9.08126V5.23511C43.7601 5.23511 42.7808 5.41317 41.9261 5.7693C41.4222 5.98372 40.9796 6.25946 40.5984 6.59653V10.7432Z" fill="black"/>
</svg>
