<svg width="30" height="30" viewBox="0 0 30 30" fill="none" xmlns="http://www.w3.org/2000/svg">
<g clip-path="url(#clip0)">
<path d="M19.3596 15.5793C19.3029 15.404 19.1513 15.2762 18.9689 15.2497L16.5267 14.8948L15.4344 12.6816C15.3528 12.5163 15.1844 12.4116 15.0001 12.4116C14.8157 12.4116 14.6473 12.5163 14.5657 12.6816L13.4735 14.8948L11.0312 15.2497C10.8488 15.2762 10.6971 15.4039 10.6402 15.5793C10.5832 15.7546 10.6307 15.9472 10.7627 16.0758L12.5299 17.7985L12.1127 20.231C12.0816 20.4127 12.1563 20.5963 12.3055 20.7047C12.4546 20.813 12.6523 20.8273 12.8155 20.7416L14.9999 19.5931L17.1844 20.7416C17.2553 20.7788 17.3327 20.7972 17.4097 20.7972C17.5102 20.7972 17.6101 20.766 17.6945 20.7046C17.8437 20.5962 17.9184 20.4127 17.8872 20.2309L17.47 17.7984L19.2372 16.0758C19.3691 15.9471 19.4166 15.7546 19.3596 15.5793ZM16.6115 17.2826C16.4973 17.3939 16.4452 17.5542 16.4722 17.7114L16.7666 19.4275L15.2255 18.6172C15.0843 18.5431 14.9158 18.5431 14.7747 18.6172L13.2336 19.4275L13.5279 17.7113C13.5549 17.5542 13.5028 17.3939 13.3887 17.2826L12.1419 16.0674L13.8649 15.817C14.0227 15.7941 14.1591 15.695 14.2296 15.552L15.0002 13.9907L15.7709 15.552C15.8415 15.6949 15.9778 15.7941 16.1356 15.817L17.8586 16.0674L16.6115 17.2826Z" fill="white"/>
<path d="M6.86243 12.7728C8.83733 12.7728 10.6916 11.5426 11.3874 9.57753C11.4766 9.32534 11.3446 9.04854 11.0924 8.95931C9.89126 8.53397 8.59692 8.59977 7.44526 9.14347C7.73717 8.76073 8.05727 8.3927 8.40684 8.04319C8.59598 7.85405 8.59598 7.54731 8.40684 7.35823C8.21764 7.16909 7.91096 7.16909 7.72182 7.35823C7.47221 7.60784 7.23696 7.86642 7.0143 8.13208C6.96128 6.69331 6.2663 5.29327 5.0053 4.39591C4.78727 4.24081 4.48487 4.29179 4.32983 4.5097C3.58715 5.55337 3.2953 6.82374 3.50811 8.08684C3.7051 9.25579 4.31301 10.2883 5.22954 11.0245C5.07034 11.3933 4.93124 11.7687 4.81124 12.149C4.71626 11.9365 4.60534 11.7294 4.47848 11.5292C3.79247 10.4475 2.7263 9.69759 1.47637 9.41768C1.35116 9.38962 1.21962 9.41253 1.11116 9.48132C1.00264 9.55011 0.926002 9.65921 0.897877 9.78454C0.340182 12.275 1.83883 14.7547 4.26391 15.4438C4.25173 15.9573 4.2734 16.4712 4.32749 16.9824C4.21516 16.8825 4.09797 16.787 3.97534 16.6968C2.94321 15.9382 1.67776 15.627 0.411198 15.8202C0.146706 15.8606 -0.0348765 16.1077 0.00549459 16.3721C0.198795 17.6384 0.873678 18.7535 1.90581 19.5122C2.73801 20.1239 3.72204 20.4447 4.73583 20.4447C4.89807 20.4447 5.06114 20.4357 5.22438 20.4192C5.42243 20.8794 5.65089 21.3297 5.90999 21.7667C4.41145 21.2862 2.70655 21.5489 1.40102 22.618C1.19413 22.7875 1.16366 23.0926 1.33317 23.2997C2.14469 24.2907 3.2936 24.9064 4.56825 25.0333C4.73026 25.0494 4.89163 25.0574 5.05223 25.0574C6.04147 25.0574 6.99591 24.7533 7.80637 24.1801C8.35159 24.7146 8.94684 25.1972 9.57831 25.6141C9.66046 25.6684 9.75315 25.6943 9.84479 25.6943C10.0021 25.6943 10.1563 25.6178 10.2494 25.4768C10.3968 25.2536 10.3353 24.9531 10.1122 24.8057C9.50237 24.4031 8.92862 23.9343 8.40684 23.4126C7.23995 22.2457 6.39514 20.8771 5.87096 19.4182C8.171 18.5317 9.45057 16.0077 8.74657 13.6C8.67151 13.3433 8.40262 13.196 8.14575 13.271C6.91628 13.6305 5.90044 14.4473 5.28526 15.5708C5.26569 15.6065 5.24799 15.6429 5.22942 15.679C5.23399 14.6485 5.38352 13.6186 5.6786 12.6228C6.07247 12.7239 6.46973 12.7728 6.86243 12.7728ZM4.24241 14.4188C2.63823 13.8229 1.61887 12.2154 1.76395 10.5103C2.54495 10.7992 3.20676 11.3326 3.66028 12.0478C4.1138 12.7631 4.31419 13.5893 4.24241 14.4188ZM2.47956 18.7316C1.79717 18.23 1.31044 17.5331 1.07589 16.7342C1.09645 16.7339 1.11696 16.7336 1.13753 16.7336C2.82356 16.7336 4.32655 17.8537 4.80503 19.4752C3.97235 19.4891 3.16194 19.2333 2.47956 18.7316ZM4.66428 24.0693C3.82153 23.9854 3.04768 23.6337 2.43872 23.0658C3.89688 22.1702 5.79098 22.3587 7.04407 23.5243C6.33508 23.9609 5.50692 24.1531 4.66428 24.0693ZM6.13493 16.036C6.54169 15.2931 7.16794 14.7184 7.92872 14.3799C8.1829 16.0721 7.26878 17.7418 5.70614 18.4394C5.58139 17.6161 5.72829 16.7788 6.13493 16.036ZM7.84417 10.0258C8.60864 9.66114 9.45286 9.5613 10.2678 9.73181C9.48415 11.2531 7.76635 12.0728 6.09063 11.7245C6.47102 10.9837 7.07981 10.3906 7.84417 10.0258ZM4.46331 7.92583C4.32257 7.09063 4.45833 6.25151 4.84616 5.51464C6.09368 6.68593 6.40997 8.56298 5.61508 10.0784C5.00723 9.50933 4.60399 8.76097 4.46331 7.92583Z" fill="white"/>
<path d="M25.2641 20.4444C26.2778 20.4444 27.262 20.1235 28.0941 19.5118C29.1262 18.7532 29.8012 17.6381 29.9944 16.3717C30.0348 16.1073 29.8531 15.8603 29.5887 15.8198C28.1203 15.5956 26.7031 16.0662 25.6722 16.9852C25.7264 16.4729 25.7483 15.9579 25.736 15.4434C26.8709 15.1217 27.8357 14.4041 28.4724 13.3999C29.1584 12.3182 29.382 11.034 29.1021 9.78409C29.0438 9.523 28.7847 9.35894 28.5237 9.41724C27.2738 9.69708 26.2075 10.447 25.5216 11.5288C25.3947 11.7289 25.2839 11.9361 25.1888 12.1486C25.0689 11.7683 24.9297 11.3929 24.7705 11.0241C26.7313 9.447 27.1479 6.58564 25.6703 4.50925C25.5958 4.40454 25.4828 4.33376 25.3562 4.31249C25.2294 4.29093 25.0995 4.32093 24.9948 4.39546C23.9511 5.13814 23.2592 6.2428 23.0463 7.50597C23.0114 7.7138 22.9913 7.92175 22.9833 8.12894C22.7614 7.86421 22.5269 7.60657 22.2781 7.35784C22.089 7.1687 21.7823 7.16865 21.5931 7.35784C21.404 7.54698 21.404 7.85372 21.5931 8.0428C21.9427 8.39237 22.2628 8.76034 22.5546 9.14308C21.4031 8.59945 20.1087 8.53353 18.9076 8.95892C18.6554 9.04816 18.5234 9.32495 18.6126 9.57714C19.3084 11.5424 21.1624 12.7724 23.1376 12.7724C23.53 12.7724 23.9274 12.7236 24.3213 12.6225C24.6169 13.6197 24.7664 14.6513 24.7706 15.6834C24.1899 14.5538 23.1666 13.6544 21.8543 13.2707C21.5975 13.1955 21.3286 13.3429 21.2535 13.5997C20.894 14.8291 21.0347 16.125 21.6499 17.2485C22.2001 18.2534 23.0714 19.0118 24.1289 19.4183C23.6046 20.8771 22.7598 22.2455 21.5931 23.4124C21.0715 23.934 20.4977 24.4026 19.8878 24.8054C19.6646 24.9528 19.6031 25.2533 19.7505 25.4766C19.8436 25.6176 19.9979 25.6941 20.1551 25.6941C20.2468 25.6941 20.3395 25.6681 20.4216 25.6138C21.0534 25.1967 21.6486 24.7141 22.1939 24.1796C23.0256 24.7668 23.9913 25.0546 24.9523 25.0546C26.3416 25.0546 27.7201 24.4556 28.6669 23.2994C28.7483 23.2 28.7869 23.0723 28.7742 22.9445C28.7615 22.8167 28.6985 22.6992 28.5991 22.6177C27.608 21.8062 26.3602 21.4293 25.0857 21.556C24.7441 21.5901 24.412 21.6603 24.0926 21.7622C24.3506 21.3266 24.5783 20.8778 24.7757 20.4189C24.9388 20.4354 25.1018 20.4444 25.2641 20.4444ZM28.2365 10.5103C28.3081 11.3399 28.1078 12.166 27.6543 12.8812C27.2007 13.5965 26.5389 14.1299 25.758 14.4188C25.6129 12.7137 26.6323 11.1061 28.2365 10.5103ZM28.9237 16.7338C28.4392 18.3749 26.9054 19.5006 25.1951 19.4746C25.6796 17.8334 27.2125 16.7056 28.9237 16.7338ZM19.7322 9.73148C20.5471 9.56091 21.3912 9.66087 22.1557 10.0255C22.9201 10.3901 23.5289 10.9834 23.9092 11.7241C22.2331 12.0721 20.5158 11.2527 19.7322 9.73148ZM24.3846 10.0781C23.9967 9.34118 23.861 8.50206 24.0017 7.66687C24.1424 6.83173 24.5456 6.08337 25.1535 5.51425C25.9484 7.02966 25.6321 8.90677 24.3846 10.0781ZM25.1815 22.5199C26.0246 22.436 26.8523 22.6282 27.5613 23.065C26.3082 24.2304 24.414 24.419 22.9559 23.5235C23.5649 22.9555 24.3387 22.6039 25.1815 22.5199ZM24.2934 18.4393C23.5326 18.1008 22.9064 17.5261 22.4997 16.7832C22.0929 16.0404 21.9461 15.2031 22.0708 14.3798C23.6334 15.0773 24.5476 16.747 24.2934 18.4393Z" fill="white"/>
</g>
<defs>
<clipPath id="clip0">
<rect width="30" height="30" fill="white"/>
</clipPath>
</defs>
</svg>
