<svg width="30" height="30" viewBox="0 0 30 30" fill="none" xmlns="http://www.w3.org/2000/svg">
<path d="M26.5202 3.68909C26.1335 3.23431 25.5695 2.97358 24.9729 2.97358H23.0147V2.36103C23.0147 1.60304 22.3979 0.986328 21.64 0.986328H8.36032C7.60227 0.986328 6.98567 1.60304 6.98567 2.36097V2.97352H5.02722C4.4306 2.97352 3.86655 3.23431 3.47986 3.68904C3.09712 4.13906 2.93169 4.73015 3.02612 5.31067C3.54068 8.47468 5.53187 11.2699 8.35785 12.8031C8.61607 13.4239 8.90849 14.012 9.23414 14.5598C10.2743 16.3101 11.5675 17.5198 12.9908 18.1048C13.1351 19.5633 12.1646 20.945 10.703 21.2743C10.6999 21.275 10.6977 21.2761 10.6946 21.2768C10.4094 21.345 10.197 21.6009 10.197 21.907V24.8829H8.9935C7.92048 24.8829 7.04753 25.7559 7.04753 26.8289V28.3648C7.04753 28.7231 7.33793 29.0135 7.6962 29.0135H22.366C22.7243 29.0135 23.0147 28.7231 23.0147 28.3648V26.8289C23.0147 25.7559 22.1417 24.8829 21.0687 24.8829H19.865V21.9071C19.865 21.6004 19.6519 21.344 19.3659 21.2765C19.3632 21.2758 19.3607 21.275 19.358 21.2743C17.8853 20.9428 16.913 19.5472 17.0725 18.0778C18.471 17.4833 19.7414 16.2844 20.7663 14.5599C21.0919 14.012 21.3843 13.4239 21.6426 12.803C24.4684 11.2697 26.4595 8.47457 26.974 5.31067C27.0685 4.73015 26.903 4.13911 26.5202 3.68909ZM4.30661 5.10238C4.27289 4.89508 4.3302 4.69161 4.46804 4.52947C4.6079 4.36503 4.81165 4.27076 5.02716 4.27076H6.98562V5.46422C6.98562 7.33558 7.22445 9.14826 7.6771 10.806C5.89825 9.40029 4.67348 7.3583 4.30661 5.10238ZM21.0687 26.1803C21.4264 26.1803 21.7174 26.4713 21.7174 26.829V27.7162H8.34483V26.829C8.34483 26.4713 8.63583 26.1803 8.9935 26.1803H21.0687ZM18.5677 22.5558V24.883H11.4945V22.5558H18.5677ZM13.1957 21.2585C13.356 21.082 13.5026 20.8907 13.6337 20.6859C14.066 20.0104 14.2929 19.2431 14.3031 18.4594C14.5335 18.4907 14.766 18.5075 15.0005 18.5075C15.2557 18.5075 15.5085 18.4879 15.7588 18.4508C15.7736 19.504 16.1835 20.5009 16.8727 21.2584H13.1957V21.2585ZM21.7172 5.46427C21.7172 8.65998 20.9834 11.6548 19.651 13.897C18.3814 16.0335 16.7298 17.2102 15.0004 17.2102C13.2708 17.2102 11.619 16.0336 10.3493 13.8971C9.01682 11.6549 8.28297 8.66003 8.28297 5.46438V2.36097C8.28297 2.31828 8.31767 2.28363 8.36026 2.28363H21.6398C21.6825 2.28363 21.7172 2.31833 21.7172 2.36097V5.46427ZM25.6935 5.10238C25.3267 7.35814 24.102 9.40007 22.3232 10.8059C22.7758 9.14815 23.0147 7.33558 23.0147 5.46427V4.27082H24.9729C25.1885 4.27082 25.3922 4.36514 25.532 4.52952C25.6698 4.69161 25.7272 4.89508 25.6935 5.10238Z" fill="white"/>
<path d="M17.7804 4.96119C17.7265 4.78839 17.5832 4.66242 17.4107 4.63623L16.0288 4.42685L15.4108 3.12114C15.3336 2.95818 15.1744 2.85498 15.0001 2.85498C14.8258 2.85498 14.6666 2.95818 14.5894 3.12114L13.9714 4.42685L12.5895 4.63623C12.417 4.66234 12.2737 4.78835 12.2198 4.96123C12.166 5.13414 12.2109 5.32386 12.3357 5.45075L13.3357 6.46709L13.0996 7.90218C13.0701 8.08135 13.1407 8.26236 13.2818 8.36923C13.4228 8.47605 13.6098 8.49012 13.7641 8.40558L15.0001 7.72806L16.2361 8.40558C16.3031 8.44229 16.3763 8.46038 16.4491 8.46038C16.544 8.46038 16.6386 8.42963 16.7183 8.36919C16.8594 8.26232 16.93 8.08131 16.9005 7.90214L16.6644 6.46705L17.6644 5.45071C17.7893 5.32386 17.8342 5.1341 17.7804 4.96119ZM15.8528 5.95842C15.7449 6.06811 15.6956 6.22615 15.7211 6.38109L15.841 7.11007L15.2132 6.76589C15.1465 6.7293 15.0733 6.71108 15.0001 6.71108C14.9269 6.71108 14.8537 6.72938 14.787 6.76589L14.1591 7.11007L14.279 6.38109C14.3045 6.22619 14.2553 6.06815 14.1473 5.95842L13.6395 5.44221L14.3414 5.33583C14.4905 5.31326 14.6195 5.21554 14.6862 5.07462L15.0001 4.41141L15.314 5.07462C15.3807 5.21554 15.5096 5.31322 15.6588 5.33583L16.3607 5.44221L15.8528 5.95842Z" fill="white"/>
<path d="M17.7804 11.501C17.7265 11.3282 17.5832 11.2022 17.4107 11.176L16.0288 10.9666L15.4108 9.66094C15.3336 9.49798 15.1744 9.39478 15.0001 9.39478C14.8258 9.39478 14.6666 9.49798 14.5894 9.66094L13.9714 10.9666L12.5895 11.176C12.417 11.2021 12.2737 11.3281 12.2198 11.501C12.166 11.6739 12.2109 11.8637 12.3357 11.9905L13.3357 13.0069L13.0996 14.442C13.0701 14.6211 13.1407 14.8022 13.2818 14.909C13.4228 15.0158 13.6098 15.0299 13.7641 14.9454L15.0001 14.2679L16.2361 14.9454C16.3031 14.9821 16.3763 15.0002 16.4491 15.0002C16.544 15.0002 16.6386 14.9694 16.7183 14.909C16.8594 14.8021 16.93 14.6211 16.9005 14.4419L16.6644 13.0068L17.6644 11.9905C17.7893 11.8637 17.8342 11.6739 17.7804 11.501ZM15.8528 12.4982C15.7449 12.6079 15.6956 12.7659 15.7211 12.9209L15.841 13.6499L15.2132 13.3057C15.1465 13.2691 15.0733 13.2509 15.0001 13.2509C14.9269 13.2509 14.8537 13.2692 14.787 13.3057L14.1591 13.6499L14.279 12.9209C14.3045 12.766 14.2553 12.6079 14.1473 12.4982L13.6395 11.982L14.3414 11.8756C14.4905 11.8531 14.6195 11.7553 14.6862 11.6144L15.0001 10.9512L15.314 11.6144C15.3807 11.7553 15.5096 11.853 15.6588 11.8756L16.3607 11.982L15.8528 12.4982Z" fill="white"/>
</svg>
