<svg width="30" height="30" viewBox="0 0 30 30" fill="none" xmlns="http://www.w3.org/2000/svg">
<path d="M26.5202 3.68908C26.1334 3.2343 25.5694 2.97357 24.9728 2.97357H23.0146V2.36102C23.0146 1.60303 22.3978 0.986328 21.6399 0.986328H8.3603C7.60226 0.986328 6.98566 1.60303 6.98566 2.36097V2.97352H5.02721C4.43059 2.97352 3.86655 3.2343 3.47986 3.68903C3.09712 4.13905 2.93169 4.73014 3.02612 5.31066C3.54068 8.47466 5.53186 11.2699 8.35784 12.8031C8.61605 13.4239 8.90847 14.0119 9.23412 14.5598C10.2743 16.3101 11.5674 17.5198 12.9908 18.1048C13.135 19.5633 12.1645 20.945 10.703 21.2742C10.6999 21.2749 10.6977 21.276 10.6946 21.2768C10.4093 21.3449 10.197 21.6009 10.197 21.907V24.8828H8.99348C7.92046 24.8828 7.04752 25.7558 7.04752 26.8288V28.3647C7.04752 28.723 7.33791 29.0134 7.69619 29.0134H22.3659C22.7242 29.0134 23.0146 28.723 23.0146 28.3647V26.8288C23.0146 25.7558 22.1416 24.8828 21.0686 24.8828H19.865V21.907C19.865 21.6003 19.6519 21.344 19.3659 21.2764C19.3632 21.2758 19.3606 21.2749 19.3579 21.2742C17.8853 20.9428 16.913 19.5472 17.0724 18.0777C18.4709 17.4832 19.7414 16.2844 20.7662 14.5599C21.0919 14.012 21.3843 13.4239 21.6425 12.803C24.4683 11.2697 26.4594 8.47455 26.974 5.31066C27.0684 4.73014 26.903 4.1391 26.5202 3.68908ZM4.30661 5.10237C4.27289 4.89507 4.3302 4.6916 4.46804 4.52946C4.6079 4.36502 4.81164 4.27076 5.02716 4.27076H6.9856V5.46421C6.9856 7.33556 7.22444 9.14824 7.67709 10.8059C5.89824 9.40026 4.67348 7.35828 4.30661 5.10237ZM21.0686 26.1802C21.4263 26.1802 21.7173 26.4712 21.7173 26.8289V27.7161H8.34481V26.8289C8.34481 26.4712 8.63581 26.1802 8.99348 26.1802H21.0686ZM18.5676 22.5557V24.8829H11.4945V22.5557H18.5676ZM13.1956 21.2584C13.356 21.0819 13.5026 20.8906 13.6337 20.6858C14.066 20.0104 14.2929 19.243 14.303 18.4593C14.5334 18.4907 14.766 18.5075 15.0005 18.5075C15.2556 18.5075 15.5084 18.4879 15.7587 18.4508C15.7735 19.5039 16.1834 20.5008 16.8727 21.2584H13.1956V21.2584ZM21.7172 5.46426C21.7172 8.65995 20.9833 11.6548 19.6509 13.897C18.3814 16.0335 16.7297 17.2101 15.0004 17.2101C13.2707 17.2101 11.619 16.0335 10.3493 13.8971C9.0168 11.6549 8.28295 8.66001 8.28295 5.46437V2.36097C8.28295 2.31827 8.31766 2.28362 8.36025 2.28362H21.6398C21.6825 2.28362 21.7172 2.31833 21.7172 2.36097V5.46426ZM25.6935 5.10237C25.3266 7.35812 24.102 9.40004 22.3232 10.8058C22.7758 9.14813 23.0146 7.33556 23.0146 5.46426V4.27081H24.9728C25.1884 4.27081 25.3921 4.36513 25.5319 4.52951C25.6698 4.6916 25.7271 4.89507 25.6935 5.10237Z" fill="white"/>
<path d="M14.0473 4.61015C14.0024 4.46615 13.8829 4.36118 13.7392 4.33935L12.5876 4.16487L12.0726 3.07678C12.0083 2.94098 11.8756 2.85498 11.7304 2.85498C11.5851 2.85498 11.4524 2.94098 11.3881 3.07678L10.8731 4.16487L9.72153 4.33935C9.57776 4.36111 9.45835 4.46612 9.41345 4.61018C9.36859 4.75427 9.40601 4.91237 9.51004 5.01812L10.3434 5.86506L10.1466 7.06097C10.122 7.21027 10.1809 7.36112 10.2984 7.45017C10.4159 7.53919 10.5718 7.55091 10.7003 7.48046L11.7304 6.91587L12.7604 7.48046C12.8162 7.51105 12.8772 7.52613 12.9379 7.52613C13.017 7.52613 13.0958 7.50051 13.1622 7.45014C13.2798 7.36108 13.3386 7.21024 13.314 7.06094L13.1173 5.86503L13.9506 5.01809C14.0547 4.91237 14.0921 4.75424 14.0473 4.61015ZM12.441 5.44117C12.351 5.53258 12.3099 5.66428 12.3312 5.7934L12.4311 6.40087L11.9079 6.11406C11.8524 6.08357 11.7913 6.06839 11.7303 6.06839C11.6693 6.06839 11.6083 6.08364 11.5527 6.11406L11.0296 6.40087L11.1295 5.7934C11.1507 5.66431 11.1097 5.53261 11.0197 5.44117L10.5965 5.011L11.1814 4.92235C11.3057 4.90354 11.4132 4.82211 11.4688 4.70468L11.7304 4.152L11.9919 4.70468C12.0476 4.82211 12.155 4.90351 12.2793 4.92235L12.8642 5.011L12.441 5.44117Z" fill="white"/>
<path d="M20.5868 4.61015C20.5419 4.46615 20.4225 4.36118 20.2787 4.33935L19.1271 4.16487L18.6121 3.07678C18.5478 2.94098 18.4152 2.85498 18.2699 2.85498C18.1246 2.85498 17.992 2.94098 17.9277 3.07678L17.4127 4.16487L16.2611 4.33935C16.1173 4.36111 15.9979 4.46612 15.953 4.61018C15.9081 4.75427 15.9456 4.91237 16.0496 5.01812L16.8829 5.86506L16.6862 7.06097C16.6616 7.21027 16.7204 7.36112 16.838 7.45017C16.9555 7.53919 17.1113 7.55091 17.2399 7.48046L18.2699 6.91587L19.2999 7.48046C19.3558 7.51105 19.4167 7.52613 19.4774 7.52613C19.5565 7.52613 19.6353 7.50051 19.7018 7.45014C19.8193 7.36108 19.8782 7.21024 19.8536 7.06094L19.6569 5.86503L20.4902 5.01809C20.5943 4.91237 20.6317 4.75424 20.5868 4.61015ZM18.9805 5.44117C18.8906 5.53258 18.8495 5.66428 18.8707 5.7934L18.9706 6.40087L18.4475 6.11406C18.3919 6.08357 18.3309 6.06839 18.2699 6.06839C18.2089 6.06839 18.1479 6.08364 18.0923 6.11406L17.5691 6.40087L17.669 5.7934C17.6903 5.66431 17.6492 5.53261 17.5593 5.44117L17.136 5.011L17.721 4.92235C17.8452 4.90354 17.9527 4.82211 18.0083 4.70468L18.2699 4.152L18.5315 4.70468C18.5871 4.82211 18.6945 4.90351 18.8188 4.92235L19.4037 5.011L18.9805 5.44117Z" fill="white"/>
<path d="M17.7804 9.63257C17.7265 9.45977 17.5832 9.3338 17.4107 9.30761L16.0288 9.09823L15.4108 7.79253C15.3336 7.62957 15.1744 7.52637 15.0001 7.52637C14.8258 7.52637 14.6666 7.62957 14.5894 7.79253L13.9714 9.09823L12.5895 9.30761C12.417 9.33372 12.2737 9.45973 12.2198 9.63261C12.166 9.80552 12.2109 9.99524 12.3357 10.1221L13.3357 11.1385L13.0996 12.5736C13.0701 12.7527 13.1407 12.9337 13.2818 13.0406C13.4228 13.1474 13.6098 13.1615 13.7641 13.0769L15.0001 12.3994L16.2361 13.0769C16.3031 13.1137 16.3763 13.1317 16.4491 13.1317C16.544 13.1317 16.6386 13.101 16.7183 13.0406C16.8594 12.9337 16.93 12.7527 16.9005 12.5735L16.6644 11.1384L17.6644 10.1221C17.7893 9.99524 17.8342 9.80548 17.7804 9.63257ZM15.8528 10.6298C15.7449 10.7395 15.6956 10.8975 15.7211 11.0525L15.841 11.7814L15.2132 11.4373C15.1465 11.4007 15.0733 11.3825 15.0001 11.3825C14.9269 11.3825 14.8537 11.4008 14.787 11.4373L14.1591 11.7814L14.279 11.0525C14.3045 10.8976 14.2553 10.7395 14.1473 10.6298L13.6395 10.1136L14.3414 10.0072C14.4905 9.98464 14.6195 9.88692 14.6862 9.746L15.0001 9.0828L15.314 9.746C15.3807 9.88692 15.5096 9.9846 15.6588 10.0072L16.3607 10.1136L15.8528 10.6298Z" fill="white"/>
</svg>
