<svg width="30" height="30" viewBox="0 0 30 30" fill="none" xmlns="http://www.w3.org/2000/svg">
<path d="M26.5202 3.68909C26.1335 3.23431 25.5695 2.97358 24.9729 2.97358H23.0147V2.36103C23.0147 1.60304 22.3979 0.986328 21.64 0.986328H8.36032C7.60227 0.986328 6.98567 1.60304 6.98567 2.36097V2.97352H5.02722C4.4306 2.97352 3.86655 3.23431 3.47986 3.68904C3.09712 4.13906 2.93169 4.73015 3.02612 5.31067C3.54068 8.47468 5.53187 11.2699 8.35785 12.8031C8.61607 13.4239 8.90849 14.012 9.23414 14.5598C10.2743 16.3101 11.5675 17.5198 12.9908 18.1048C13.1351 19.5633 12.1646 20.945 10.703 21.2743C10.6999 21.275 10.6977 21.2761 10.6946 21.2768C10.4094 21.345 10.197 21.6009 10.197 21.907V24.8829H8.9935C7.92048 24.8829 7.04753 25.7559 7.04753 26.8289V28.3648C7.04753 28.7231 7.33793 29.0135 7.6962 29.0135H22.366C22.7243 29.0135 23.0147 28.7231 23.0147 28.3648V26.8289C23.0147 25.7559 22.1417 24.8829 21.0687 24.8829H19.865V21.9071C19.865 21.6004 19.6519 21.344 19.3659 21.2765C19.3632 21.2758 19.3607 21.275 19.358 21.2743C17.8853 20.9428 16.913 19.5472 17.0725 18.0778C18.471 17.4833 19.7414 16.2844 20.7663 14.5599C21.0919 14.012 21.3843 13.4239 21.6426 12.803C24.4684 11.2697 26.4595 8.47457 26.974 5.31067C27.0685 4.73015 26.903 4.13911 26.5202 3.68909ZM4.30661 5.10238C4.27289 4.89508 4.3302 4.69161 4.46804 4.52947C4.6079 4.36503 4.81165 4.27076 5.02716 4.27076H6.98562V5.46422C6.98562 7.33558 7.22445 9.14826 7.6771 10.806C5.89825 9.40029 4.67348 7.3583 4.30661 5.10238ZM21.0687 26.1803C21.4264 26.1803 21.7174 26.4713 21.7174 26.829V27.7162H8.34483V26.829C8.34483 26.4713 8.63583 26.1803 8.9935 26.1803H21.0687ZM18.5677 22.5558V24.883H11.4945V22.5558H18.5677ZM13.1957 21.2585C13.356 21.082 13.5026 20.8907 13.6337 20.6859C14.066 20.0104 14.2929 19.2431 14.3031 18.4594C14.5335 18.4907 14.766 18.5075 15.0005 18.5075C15.2557 18.5075 15.5085 18.4879 15.7588 18.4508C15.7736 19.504 16.1835 20.5009 16.8727 21.2584H13.1957V21.2585ZM21.7172 5.46427C21.7172 8.65998 20.9834 11.6548 19.651 13.897C18.3814 16.0335 16.7298 17.2102 15.0004 17.2102C13.2708 17.2102 11.619 16.0336 10.3493 13.8971C9.01682 11.6549 8.28297 8.66003 8.28297 5.46438V2.36097C8.28297 2.31828 8.31767 2.28363 8.36026 2.28363H21.6398C21.6825 2.28363 21.7172 2.31833 21.7172 2.36097V5.46427ZM25.6935 5.10238C25.3267 7.35814 24.102 9.40007 22.3232 10.8059C22.7758 9.14815 23.0147 7.33558 23.0147 5.46427V4.27082H24.9729C25.1885 4.27082 25.3922 4.36514 25.532 4.52952C25.6698 4.69161 25.7272 4.89508 25.6935 5.10238Z" fill="white"/>
<path d="M18.9382 7.64628C18.8618 7.41156 18.6589 7.24044 18.4146 7.20486L16.4571 6.92042L15.5818 5.14672C15.4725 4.92535 15.247 4.78516 15.0001 4.78516C14.7532 4.78516 14.5277 4.92535 14.4184 5.14672L13.5431 6.92042L11.5857 7.20486C11.3413 7.24033 11.1383 7.4115 11.062 7.64634C10.9858 7.88123 11.0494 8.13895 11.2262 8.31133L12.6426 9.69194L12.3082 11.6414C12.2664 11.8848 12.3664 12.1307 12.5662 12.2759C12.7659 12.421 13.0308 12.4401 13.2493 12.3252L15.0001 11.4049L16.7508 12.3252C16.8457 12.3751 16.9494 12.3997 17.0526 12.3997C17.187 12.3997 17.3209 12.3579 17.4339 12.2758C17.6337 12.1306 17.7337 11.8847 17.6919 11.6414L17.3575 9.69188L18.7739 8.31127C18.9508 8.13895 19.0145 7.88118 18.9382 7.64628ZM16.2079 9.00095C16.055 9.14995 15.9852 9.36465 16.0213 9.57512L16.1912 10.5654L15.3019 10.0978C15.2075 10.0481 15.1037 10.0234 15.0001 10.0234C14.8964 10.0234 14.7927 10.0482 14.6982 10.0978L13.809 10.5654L13.9788 9.57512C14.0149 9.3647 13.9451 9.15001 13.7922 9.00095L13.0729 8.29972L14.0671 8.15521C14.2783 8.12455 14.461 7.99181 14.5555 7.80038L15.0001 6.89946L15.4447 7.80038C15.5392 7.99181 15.7218 8.1245 15.9331 8.15521L16.9273 8.29972L16.2079 9.00095Z" fill="white"/>
</svg>
