<svg width="30" height="30" viewBox="0 0 30 30" fill="none" xmlns="http://www.w3.org/2000/svg">
<path d="M10.0886 7.7483L12.0683 21.2917H11.6161C10.8158 21.2917 10.1648 21.943 10.1648 22.7431V24.1944H19.8405V22.7431C19.8405 21.943 19.1892 21.2917 18.3891 21.2917H17.9368L19.9163 7.74829L10.0886 7.7483ZM18.3891 22.2593C18.6561 22.2593 18.8729 22.4766 18.8729 22.7431V23.2268H11.1324V22.7431C11.1324 22.4766 11.349 22.2593 11.6161 22.2593H18.3891ZM16.4172 8.71586L15.499 21.2917H14.6731L13.5948 8.71586H16.4172ZM18.7969 8.71586L16.959 21.2917H16.4684L17.3866 8.71586H18.7969ZM12.6236 8.71586L13.702 21.2917H13.046L11.2082 8.71586H12.6236Z" fill="white"/>
<path d="M13.976 4.25446C13.9183 4.06951 13.7649 3.93467 13.5803 3.90663L12.1011 3.68251L11.4396 2.2849C11.357 2.11047 11.1866 2 11 2C10.8134 2 10.643 2.11047 10.5604 2.2849L9.89892 3.68251L8.41971 3.90663C8.23504 3.93458 8.08165 4.06946 8.02399 4.25451C7.96636 4.43959 8.01443 4.64267 8.14805 4.77849L9.21843 5.86637L8.96572 7.40248C8.93415 7.59425 9.00973 7.78801 9.16072 7.9024C9.31163 8.01675 9.51181 8.0318 9.67695 7.94131L11 7.2161L12.323 7.94131C12.3947 7.9806 12.4731 7.99997 12.551 7.99997C12.6526 7.99997 12.7538 7.96706 12.8392 7.90236C12.9902 7.78797 13.0658 7.59421 13.0342 7.40244L12.7815 5.86632L13.8519 4.77845C13.9856 4.64267 14.0336 4.43955 13.976 4.25446ZM11.9127 5.32189C11.7972 5.4393 11.7444 5.60847 11.7718 5.77432L11.9001 6.55461L11.2281 6.1862C11.1567 6.14704 11.0783 6.12754 11 6.12754C10.9216 6.12754 10.8433 6.14712 10.7719 6.1862L10.0998 6.55461L10.2282 5.77432C10.2555 5.60851 10.2027 5.43934 10.0872 5.32189L9.54358 4.76935L10.2949 4.65548C10.4545 4.63132 10.5926 4.52672 10.664 4.37588L11 3.66599L11.336 4.37588C11.4074 4.52672 11.5454 4.63128 11.7051 4.65548L12.4564 4.76935L11.9127 5.32189Z" fill="white"/>
<path d="M21.976 4.25446C21.9183 4.06951 21.7649 3.93467 21.5803 3.90663L20.1011 3.68251L19.4396 2.2849C19.357 2.11047 19.1866 2 19 2C18.8134 2 18.643 2.11047 18.5604 2.2849L17.8989 3.68251L16.4197 3.90663C16.235 3.93458 16.0817 4.06946 16.024 4.25451C15.9664 4.43959 16.0144 4.64267 16.148 4.77849L17.2184 5.86637L16.9657 7.40248C16.9342 7.59425 17.0097 7.78801 17.1607 7.9024C17.3116 8.01675 17.5118 8.0318 17.6769 7.94131L19 7.2161L20.323 7.94131C20.3947 7.9806 20.4731 7.99997 20.551 7.99997C20.6526 7.99997 20.7538 7.96706 20.8392 7.90236C20.9902 7.78797 21.0658 7.59421 21.0342 7.40244L20.7815 5.86632L21.8519 4.77845C21.9856 4.64267 22.0336 4.43955 21.976 4.25446ZM19.9127 5.32189C19.7972 5.4393 19.7444 5.60847 19.7718 5.77432L19.9001 6.55461L19.2281 6.1862C19.1567 6.14704 19.0783 6.12754 19 6.12754C18.9216 6.12754 18.8433 6.14712 18.7719 6.1862L18.0998 6.55461L18.2282 5.77432C18.2555 5.60851 18.2027 5.43934 18.0872 5.32189L17.5436 4.76935L18.2949 4.65548C18.4545 4.63132 18.5926 4.52672 18.664 4.37588L19 3.66599L19.336 4.37588C19.4074 4.52672 19.5454 4.63128 19.7051 4.65548L20.4564 4.76935L19.9127 5.32189Z" fill="white"/>
<g clip-path="url(#clip0)">
<path d="M25.5525 21.0903C26.5043 21.0903 27.4285 20.789 28.21 20.2146C29.1791 19.5023 29.8129 18.455 29.9944 17.266C30.0143 17.1357 29.9816 17.0027 29.9035 16.8965C29.8254 16.7902 29.7084 16.7194 29.5779 16.6994C28.2413 16.4953 26.9507 16.9052 25.991 17.7165C26.0317 17.2892 26.0473 16.86 26.0384 16.4312C28.2951 15.7703 29.6856 13.4542 29.1646 11.1275C29.1358 10.9989 29.0571 10.8869 28.9457 10.8162C28.8343 10.7456 28.6995 10.7223 28.5708 10.7509C27.1692 11.0647 26.0676 12.0049 25.4919 13.2102C25.3919 12.9043 25.2781 12.6019 25.1507 12.304C25.9959 11.6143 26.5568 10.654 26.7397 9.56824C26.9396 8.38213 26.6656 7.18922 25.9681 6.20918C25.809 5.98541 25.4985 5.93309 25.2746 6.09234C24.126 6.90978 23.4772 8.17136 23.3939 9.47953C23.2093 9.26408 23.015 9.05396 22.8111 8.85C22.6168 8.65582 22.302 8.65582 22.1078 8.85C21.9137 9.04418 21.9137 9.35906 22.1078 9.55318C22.3752 9.82054 22.6236 10.0997 22.8546 10.3884C21.8762 9.99908 20.7584 9.94833 19.6901 10.3266C19.5658 10.3706 19.464 10.4621 19.4072 10.5811C19.3504 10.7001 19.3433 10.8368 19.3872 10.9612C19.7886 12.095 20.6076 13.0047 21.6933 13.5226C22.3083 13.816 22.9671 13.9637 23.6289 13.9637C23.9695 13.9637 24.3107 13.9236 24.6472 13.845C24.8913 14.6869 25.0239 15.5545 25.0443 16.4245C24.4632 15.4044 23.5267 14.6624 22.3971 14.3321C22.1336 14.255 21.8574 14.4063 21.7803 14.6698C21.4427 15.8243 21.5749 17.0411 22.1525 18.0961C22.6616 19.0261 23.4635 19.7318 24.4371 20.1174C23.9961 21.3266 23.3159 22.4674 22.3962 23.4657C22.4582 23.2069 22.4991 22.9411 22.5149 22.6698C22.5854 21.469 22.1839 20.3127 21.3846 19.4139C21.2022 19.2087 20.8878 19.1903 20.6826 19.3727C18.943 20.9196 18.6874 23.523 20.0219 25.3713C18.5115 26.2453 16.7916 26.7115 14.9999 26.7115C13.2081 26.7115 11.4883 26.2453 9.9778 25.3713C10.5842 24.5334 10.8815 23.5207 10.8201 22.4743C10.7497 21.2735 10.2159 20.172 9.3171 19.3727C9.11184 19.1902 8.79755 19.2087 8.61509 19.4139C7.5972 20.5586 7.27183 22.0824 7.60693 23.4694C6.68554 22.4702 6.0041 21.3281 5.56272 20.1173C6.53631 19.7318 7.33816 19.0261 7.84734 18.096C8.42495 17.041 8.55714 15.8241 8.21958 14.6696C8.18249 14.5431 8.09677 14.4363 7.98111 14.373C7.86544 14.3097 7.72939 14.2949 7.60271 14.3319C6.43658 14.6729 5.5135 15.4476 4.95557 16.4286C4.97543 15.5572 5.10809 14.6881 5.3526 13.8449C5.68916 13.9235 6.03041 13.9636 6.37096 13.9636C7.03271 13.9636 7.6916 13.8158 8.30654 13.5225C9.39222 13.0046 10.2111 12.0949 10.6125 10.9611C10.7042 10.7023 10.5687 10.4181 10.3097 10.3264C9.24116 9.94798 8.1232 9.99931 7.14457 10.389C7.3756 10.1 7.62433 9.8206 7.89193 9.55294C8.08611 9.35876 8.08611 9.04388 7.89193 8.84976C7.69775 8.65558 7.38287 8.65558 7.18875 8.84976C6.98478 9.05373 6.7906 9.26373 6.60597 9.47929C6.52271 8.17119 5.87391 6.90955 4.72524 6.09217C4.50141 5.93291 4.19098 5.98523 4.03178 6.209C3.3344 7.18904 3.06042 8.38195 3.26016 9.56806C3.44309 10.6539 4.00401 11.6141 4.84922 12.3039C4.72178 12.6017 4.60799 12.9041 4.50797 13.21C3.93229 12.0047 2.83073 11.0645 1.42917 10.7507C1.30062 10.7219 1.16562 10.7454 1.05423 10.816C0.942848 10.8867 0.864098 10.9986 0.835328 11.1274C0.314432 13.4541 1.70486 15.7701 3.96153 16.431C3.95268 16.8599 3.96827 17.289 4.00899 17.7163C3.0494 16.9052 1.75876 16.4954 0.422068 16.6993C0.291697 16.7192 0.174627 16.7901 0.0964635 16.8964C0.0183583 17.0027 -0.0143369 17.1356 0.00558489 17.2659C0.345369 19.4912 2.26882 21.0896 4.4543 21.0896C4.59235 21.0896 4.73163 21.0824 4.87155 21.0694C5.03139 21.4378 5.21297 21.7988 5.41483 22.1513C4.07297 21.8075 2.5905 22.083 1.43908 23.0259C1.22656 23.1999 1.19544 23.5132 1.36941 23.7256C2.25857 24.8114 3.55278 25.3738 4.85737 25.3738C5.72033 25.3738 6.58758 25.1268 7.3449 24.6229C7.61865 24.8863 7.90347 25.1342 8.19866 25.3658C6.85869 25.555 5.61762 26.3423 4.90219 27.6089C4.83733 27.7237 4.82069 27.8596 4.85602 27.9866C4.89135 28.1137 4.97567 28.2215 5.09051 28.2864C5.77559 28.6734 6.53238 28.8707 7.29837 28.8707C7.70326 28.8707 8.11089 28.8156 8.51161 28.704C9.52616 28.4219 10.3913 27.8087 10.988 26.9577C12.2499 27.4489 13.605 27.7059 14.9999 27.7059C16.3947 27.7059 17.7498 27.4489 19.0117 26.9577C19.6084 27.8087 20.4735 28.422 21.4882 28.704C21.889 28.8155 22.2963 28.8707 22.7014 28.8707C23.4673 28.8707 24.2242 28.6733 24.9093 28.2864C25.1483 28.1513 25.2328 27.8479 25.0977 27.6089C24.3822 26.3423 23.1411 25.555 21.8012 25.3658C22.0964 25.1343 22.3812 24.8863 22.6549 24.6229C23.4121 25.1268 24.2794 25.3738 25.1425 25.3738C26.4469 25.3738 27.7414 24.8113 28.6304 23.7256C28.714 23.6236 28.7535 23.4926 28.7405 23.3613C28.7274 23.2301 28.6628 23.1094 28.5607 23.0258C27.4092 22.0828 25.9267 21.8075 24.5849 22.1513C24.7867 21.7988 24.9683 21.4378 25.1282 21.0695C25.2701 21.0829 25.4116 21.0903 25.5525 21.0903ZM26.5916 13.2661C26.996 12.6284 27.5811 12.1482 28.2716 11.8788C28.3734 13.398 27.4706 14.8217 26.053 15.3774C26.0023 14.6378 26.1871 13.9039 26.5916 13.2661ZM26.8202 18.3239C27.4288 17.8765 28.1484 17.6417 28.8899 17.6415C28.6684 18.3491 28.2296 18.9658 27.621 19.4133C27.0122 19.8606 26.2928 20.0954 25.5513 20.0956C25.7727 19.3881 26.2115 18.7712 26.8202 18.3239ZM3.94682 15.3772C2.52956 14.8215 1.62699 13.3981 1.7287 11.8792C3.14602 12.4349 4.04854 13.8582 3.94682 15.3772ZM2.37939 19.4133C1.77095 18.966 1.33208 18.3493 1.1106 17.642C2.63315 17.6448 3.99153 18.6432 4.44856 20.0956C3.70735 20.0953 2.98782 19.8605 2.37939 19.4133ZM7.29656 11.4047C7.97818 11.0795 8.72888 10.9839 9.45702 11.1227C8.73562 12.4636 7.21388 13.1894 5.71799 12.9065C6.06826 12.2532 6.61494 11.7298 7.29656 11.4047ZM4.2412 9.40289C4.11569 8.65804 4.23006 7.90974 4.56364 7.24769C5.09573 7.76396 5.44899 8.43345 5.57444 9.17835C5.69994 9.92314 5.58557 10.6715 5.25199 11.3335C4.71997 10.8173 4.3667 10.1477 4.2412 9.40289ZM5.38729 19.1106C5.28938 18.376 5.42672 17.6316 5.78936 16.9692C6.15199 16.3068 6.70517 15.7902 7.37683 15.4769C7.57593 16.9864 6.76635 18.465 5.38729 19.1106ZM2.51233 23.4862C3.8236 22.7129 5.50072 22.8799 6.63392 23.8965C5.32242 24.6697 3.64542 24.5027 2.51233 23.4862ZM9.03186 20.5042C9.50483 21.0749 9.7835 21.7786 9.82768 22.5325C9.87192 23.2864 9.67739 24.0177 9.27433 24.6399C8.30443 23.4661 8.2057 21.7833 9.03186 20.5042ZM8.24554 27.746C7.51787 27.9482 6.76201 27.9125 6.06885 27.6498C7.00271 26.4651 8.60577 26.0115 10.0208 26.5261C10.0328 26.5322 10.0448 26.5382 10.0568 26.5442C9.59899 27.1248 8.97134 27.5442 8.24554 27.746ZM20.1726 22.5325C20.2168 21.7785 20.4956 21.0746 20.9688 20.5039C21.372 21.126 21.5666 21.8576 21.5224 22.6116C21.4782 23.3656 21.1994 24.0695 20.7263 24.6402C20.323 24.0181 20.1284 23.2865 20.1726 22.5325ZM23.9312 27.6495C22.5086 28.1862 20.8869 27.7363 19.944 26.5441C19.9559 26.5381 19.9677 26.5321 19.9796 26.5262C21.3944 26.0116 22.9973 26.465 23.9312 27.6495ZM27.4881 23.4862C26.3549 24.5025 24.6778 24.6696 23.3664 23.8965C24.4996 22.8802 26.1766 22.7131 27.4881 23.4862ZM24.6125 19.1109C23.9406 18.7975 23.3876 18.2808 23.025 17.6185C22.6624 16.9561 22.525 16.2118 22.6231 15.4771C24.002 16.1226 24.8116 17.6014 24.6125 19.1109ZM22.1216 12.625C21.44 12.2998 20.8933 11.7764 20.543 11.1232C22.0392 10.8404 23.5607 11.5661 24.282 12.907C23.5541 13.0457 22.8032 12.9501 22.1216 12.625ZM24.7486 11.3331C24.0656 9.9723 24.3457 8.30994 25.4368 7.24799C25.7702 7.90998 25.8845 8.65822 25.759 9.40283C25.6336 10.1475 25.2804 10.8169 24.7486 11.3331Z" fill="white"/>
</g>
<defs>
<clipPath id="clip0">
<rect width="30" height="30" fill="white"/>
</clipPath>
</defs>
</svg>
