<svg width="30" height="30" viewBox="0 0 30 30" fill="none" xmlns="http://www.w3.org/2000/svg">
<path d="M25.1285 22.9711L21.621 16.8093C21.9765 16.6434 22.1898 16.2642 22.1661 15.8376L21.9054 13.6573L23.3985 12.0931C23.7303 11.7613 23.754 11.1926 23.4222 10.7897L21.9291 9.17812L22.2372 6.97408C22.2846 6.50009 21.9528 6.02611 21.4788 5.93131L19.3222 5.50472L18.2794 3.58508C18.0661 3.13479 17.5448 2.9452 17.0708 3.13479H17.0471L15.0563 4.05906L13.113 3.11109C12.8997 2.99259 12.639 2.96889 12.402 3.03999C12.165 3.11109 11.9754 3.27699 11.8569 3.49028L10.7905 5.40992L8.63382 5.78911C8.13613 5.88391 7.80434 6.3342 7.85174 6.85558L8.11243 9.03592L6.61937 10.6001C6.28758 10.9319 6.26388 11.5006 6.59568 11.9035L8.08873 13.5151L7.78064 15.7191C7.73324 16.1457 7.99393 16.5486 8.39682 16.7145L4.86563 22.9711C4.77083 23.1133 4.79453 23.3029 4.86563 23.4451C4.96042 23.5873 5.10262 23.6821 5.26851 23.6821H9.0604L10.7905 26.6919C10.8853 26.8341 11.0274 26.9289 11.1933 26.9289C11.3592 26.9289 11.5251 26.8341 11.5962 26.6919L14.9852 20.9093L18.3742 26.763C18.469 26.9052 18.6112 27 18.7771 27C18.943 27 19.1089 26.9052 19.18 26.763L20.9101 23.6821H24.7019C24.8678 23.6821 25.0337 23.5873 25.1048 23.4451C25.2233 23.3029 25.2233 23.1133 25.1285 22.9711ZM11.217 25.5069L9.74768 22.9711C9.65289 22.8289 9.51069 22.7341 9.3448 22.7341H6.07429L9.3448 16.9515L10.6957 17.1885L11.7384 19.1081C11.9517 19.5584 12.4731 19.748 12.9471 19.5584H12.9708L13.9425 19.1081L14.4164 19.9376L11.217 25.5069ZM12.5916 18.7052C12.5679 18.7052 12.5679 18.7052 12.5679 18.7052L11.5251 16.7382C11.3829 16.5012 11.1459 16.3116 10.8616 16.2879L8.68121 15.885L8.98931 13.7047C9.0367 13.4203 8.94191 13.1122 8.75231 12.9226L7.28296 11.3111L8.77601 9.7469C8.98931 9.53361 9.0841 9.24921 9.0367 8.96482L8.77601 6.80818C8.77601 6.80818 8.77601 6.78448 8.79971 6.76078L10.9563 6.3816C11.217 6.3342 11.4777 6.1683 11.6199 5.90761L12.6864 3.98797L14.6297 4.93594C14.8904 5.07813 15.2222 5.07813 15.4829 4.93594L17.45 4.03536C17.4737 4.03536 17.4737 4.03536 17.4737 4.03536L18.5164 6.00241C18.6586 6.2394 18.8956 6.42899 19.1563 6.45269L21.3129 6.87928L21.0049 9.05962C20.9575 9.34401 21.0523 9.6521 21.2418 9.8417L22.7349 11.4532L21.2181 13.0174C21.0049 13.2307 20.9101 13.5151 20.9575 13.7995L21.2181 15.9798L19.0852 16.3353C18.8245 16.3827 18.5638 16.5486 18.4216 16.8093L17.3552 18.7289L15.4118 17.781C15.1511 17.6388 14.8193 17.6388 14.5586 17.781L12.5916 18.7052ZM20.6494 22.7341C20.4835 22.7341 20.3176 22.8289 20.2465 22.9711L18.7771 25.578L15.4355 19.7954C15.4118 19.7243 15.3881 19.6769 15.3407 19.6295L14.8193 18.7052L14.9852 18.6341L16.9286 19.5821C17.0708 19.6532 17.213 19.6769 17.3552 19.6769C17.687 19.6769 18.0187 19.511 18.1846 19.2029L19.2511 17.2833L20.6731 17.0226L23.9199 22.7341H20.6494Z" fill="white"/>
<path d="M19.7251 11.3585C19.7251 8.75159 17.5921 6.61865 14.9852 6.61865C12.3783 6.61865 10.2454 8.75159 10.2454 11.3585C10.2454 13.9654 12.3783 16.0984 14.9852 16.0984C17.5921 16.0984 19.7251 13.9654 19.7251 11.3585ZM14.9852 15.1504C12.8997 15.1504 11.1933 13.444 11.1933 11.3585C11.1933 9.27297 12.8997 7.56662 14.9852 7.56662C17.0708 7.56662 18.7771 9.27297 18.7771 11.3585C18.7771 13.444 17.0708 15.1504 14.9852 15.1504Z" fill="white"/>
</svg>
