<svg width="30" height="30" viewBox="0 0 30 30" fill="none" xmlns="http://www.w3.org/2000/svg">
<g clip-path="url(#clip0)">
<path d="M20.9575 12.7811L19.3576 9.71202C19.2801 9.58164 19.1714 9.5 18.9998 9.5H11.0002C10.833 9.5 10.7211 9.57959 10.6424 9.71202L9.04247 12.7811C8.9684 12.932 8.99376 13.0836 9.09874 13.2046L14.6984 19.3683C14.7744 19.4519 14.8843 19.5 15 19.5C15.1157 19.5 15.2256 19.4519 15.3016 19.3683L20.9012 13.2046C21.0056 13.0842 21.032 12.9328 20.9575 12.7811ZM18.3526 10.2673L17.3316 12.2258L15.7999 10.2673H18.3526ZM16.5999 12.5691H13.4001L15 10.523L16.5999 12.5691ZM14.2 10.2673L12.6684 12.2258L11.6474 10.2673H14.2ZM11.0002 10.7414L11.953 12.5691H10.0475L11.0002 10.7414ZM10.2795 13.3363H12.3359L14.3078 17.7706L10.2795 13.3363ZM15 17.3714L13.2057 13.3363H16.7943L15 17.3714ZM15.6922 17.7706L17.6641 13.3363H19.7205L15.6922 17.7706ZM18.047 12.5691L18.9998 10.7414L19.9525 12.5691H18.047Z" fill="white"/>
<path d="M11.5854 20.5C11.7913 19.9174 12.3469 19.5 13 19.5H17C17.6531 19.5 18.2087 19.9174 18.4146 20.5H11.5854Z" stroke="white"/>
<path d="M25.5526 19.0903C26.5045 19.0903 27.4287 18.789 28.2101 18.2146C29.1793 17.5023 29.813 16.455 29.9945 15.266C30.0144 15.1357 29.9818 15.0027 29.9037 14.8965C29.8256 14.7902 29.7085 14.7194 29.5781 14.6994C28.2414 14.4953 26.9508 14.9052 25.9911 15.7165C26.0318 15.2892 26.0474 14.86 26.0385 14.4312C28.2953 13.7703 29.6857 11.4542 29.1647 9.12753C29.1359 8.99886 29.0572 8.88689 28.9458 8.81622C28.8344 8.74562 28.6996 8.7223 28.5709 8.75089C27.1693 9.06472 26.0677 10.0049 25.492 11.2102C25.392 10.9043 25.2782 10.6019 25.1508 10.304C25.996 9.61427 26.557 8.65404 26.7398 7.56824C26.9398 6.38213 26.6657 5.18922 25.9682 4.20918C25.8091 3.98541 25.4986 3.93309 25.2748 4.09234C24.1261 4.90978 23.4773 6.17136 23.394 7.47953C23.2094 7.26408 23.0152 7.05396 22.8112 6.85C22.617 6.65582 22.3021 6.65582 22.108 6.85C21.9138 7.04417 21.9138 7.35906 22.108 7.55318C22.3753 7.82054 22.6238 8.09968 22.8547 8.38837C21.8763 7.99908 20.7586 7.94833 19.6902 8.32656C19.5659 8.37056 19.4642 8.46214 19.4073 8.58115C19.3505 8.70015 19.3434 8.83685 19.3873 8.96118C19.7888 10.095 20.6077 11.0047 21.6934 11.5226C22.3084 11.816 22.9672 11.9637 23.629 11.9637C23.9696 11.9637 24.3108 11.9236 24.6473 11.845C24.8914 12.6869 25.024 13.5545 25.0444 14.4245C24.4634 13.4044 23.5269 12.6624 22.3972 12.3321C22.1337 12.255 21.8575 12.4063 21.7804 12.6698C21.4428 13.8243 21.5751 15.0411 22.1526 16.0961C22.6617 17.0261 23.4636 17.7318 24.4372 18.1174C23.9962 19.3266 23.316 20.4674 22.3963 21.4657C22.4584 21.2069 22.4992 20.9411 22.5151 20.6698C22.5855 19.469 22.184 18.3127 21.3847 17.4139C21.2023 17.2087 20.8879 17.1903 20.6827 17.3727C18.9431 18.9196 18.6875 21.523 20.022 23.3713C18.5117 24.2453 16.7918 24.7115 15 24.7115C13.2082 24.7115 11.4884 24.2453 9.97792 23.3713C10.5844 22.5333 10.8816 21.5207 10.8203 20.4743C10.7498 19.2735 10.216 18.172 9.31722 17.3727C9.11197 17.1902 8.79767 17.2087 8.61521 17.4139C7.59732 18.5586 7.27195 20.0824 7.60705 21.4694C6.68567 20.4702 6.00422 19.3281 5.56284 18.1173C6.53643 17.7318 7.33828 17.0261 7.84746 16.096C8.42507 15.041 8.55726 13.8241 8.2197 12.6696C8.18262 12.5431 8.09689 12.4363 7.98123 12.373C7.86556 12.3097 7.72951 12.2949 7.60283 12.3319C6.4367 12.6729 5.51362 13.4476 4.95569 14.4286C4.97555 13.5572 5.10821 12.6881 5.35272 11.8449C5.68928 11.9235 6.03053 11.9636 6.37108 11.9636C7.03283 11.9636 7.69172 11.8158 8.30666 11.5225C9.39234 11.0046 10.2112 10.0949 10.6127 8.96107C10.7043 8.70226 10.5688 8.41808 10.3099 8.32638C9.24128 7.94798 8.12332 7.99931 7.14469 8.38902C7.37572 8.10003 7.62445 7.8206 7.89205 7.55294C8.08623 7.35876 8.08623 7.04388 7.89205 6.84976C7.69787 6.65558 7.38299 6.65558 7.18887 6.84976C6.9849 7.05373 6.79072 7.26373 6.6061 7.47929C6.52284 6.17119 5.87403 4.90955 4.72536 4.09217C4.50153 3.93291 4.1911 3.98523 4.03191 4.209C3.33452 5.18904 3.06054 6.38195 3.26029 7.56806C3.44322 8.65386 4.00413 9.61409 4.84934 10.3039C4.7219 10.6017 4.60811 10.9041 4.5081 11.21C3.93241 10.0047 2.83085 9.06454 1.4293 8.75072C1.30074 8.72195 1.16574 8.74538 1.05436 8.81605C0.94297 8.88671 0.86422 8.99862 0.83545 9.12736C0.314554 11.4541 1.70498 13.7701 3.96165 14.431C3.9528 14.8599 3.96839 15.289 4.00911 15.7163C3.04953 14.9052 1.75889 14.4954 0.42219 14.6993C0.291819 14.7192 0.174749 14.7901 0.0965856 14.8964C0.0184804 15.0027 -0.0142149 15.1356 0.00570696 15.2659C0.345491 17.4912 2.26894 19.0896 4.45442 19.0896C4.59247 19.0896 4.73175 19.0824 4.87167 19.0694C5.03151 19.4378 5.21309 19.7988 5.41495 20.1513C4.0731 19.8075 2.59062 20.083 1.4392 21.0259C1.22668 21.1999 1.19557 21.5132 1.36953 21.7256C2.25869 22.8114 3.5529 23.3738 4.85749 23.3738C5.72046 23.3738 6.5877 23.1268 7.34502 22.6229C7.61877 22.8863 7.90359 23.1342 8.19879 23.3658C6.85881 23.555 5.61774 24.3423 4.90231 25.6089C4.83745 25.7237 4.82081 25.8596 4.85614 25.9866C4.89147 26.1137 4.97579 26.2215 5.09063 26.2864C5.77571 26.6734 6.5325 26.8707 7.2985 26.8707C7.70338 26.8707 8.11101 26.8156 8.51173 26.704C9.52628 26.4219 10.3914 25.8087 10.9881 24.9577C12.25 25.4489 13.6052 25.7059 15 25.7059C16.3948 25.7059 17.7499 25.4489 19.0118 24.9577C19.6085 25.8087 20.4737 26.422 21.4883 26.704C21.8891 26.8155 22.2965 26.8707 22.7015 26.8707C23.4674 26.8707 24.2244 26.6733 24.9094 26.2864C25.1484 26.1513 25.2329 25.8479 25.0978 25.6089C24.3823 24.3423 23.1413 23.555 21.8013 23.3658C22.0965 23.1343 22.3813 22.8863 22.655 22.6229C23.4123 23.1268 24.2795 23.3738 25.1426 23.3738C26.4471 23.3738 27.7416 22.8113 28.6305 21.7256C28.7141 21.6236 28.7536 21.4926 28.7406 21.3613C28.7275 21.2301 28.6629 21.1094 28.5608 21.0258C27.4093 20.0828 25.9269 19.8075 24.585 20.1513C24.7868 19.7988 24.9684 19.4378 25.1283 19.0695C25.2702 19.0829 25.4118 19.0903 25.5526 19.0903ZM26.5917 11.2661C26.9961 10.6284 27.5812 10.1482 28.2717 9.87876C28.3735 11.398 27.4707 12.8217 26.0531 13.3774C26.0024 12.6378 26.1872 11.9039 26.5917 11.2661ZM26.8203 16.3239C27.429 15.8765 28.1485 15.6417 28.89 15.6415C28.6686 16.3491 28.2297 16.9658 27.6211 17.4133C27.0124 17.8606 26.2929 18.0954 25.5514 18.0956C25.7728 17.3881 26.2116 16.7712 26.8203 16.3239ZM3.94694 13.3772C2.52968 12.8215 1.62711 11.3981 1.72883 9.87917C3.14615 10.4349 4.04866 11.8582 3.94694 13.3772ZM2.37951 17.4133C1.77107 16.966 1.33221 16.3493 1.11072 15.642C2.63328 15.6448 3.99165 16.6432 4.44868 18.0956C3.70747 18.0953 2.98794 17.8605 2.37951 17.4133ZM7.29668 9.40468C7.9783 9.07948 8.729 8.98386 9.45714 9.12273C8.73574 10.4636 7.214 11.1894 5.71811 10.9065C6.06838 10.2532 6.61506 9.72982 7.29668 9.40468ZM4.24132 7.40289C4.11581 6.65804 4.23019 5.90974 4.56376 5.24769C5.09585 5.76396 5.44911 6.43345 5.57456 7.17835C5.70006 7.92314 5.58569 8.6715 5.25212 9.33355C4.72009 8.81728 4.36683 8.14767 4.24132 7.40289ZM5.38741 17.1106C5.2895 16.376 5.42684 15.6316 5.78948 14.9692C6.15211 14.3068 6.7053 13.7902 7.37695 13.4769C7.57606 14.9864 6.76647 16.465 5.38741 17.1106ZM2.51246 21.4862C3.82372 20.7129 5.50085 20.8799 6.63405 21.8965C5.32255 22.6697 3.64554 22.5027 2.51246 21.4862ZM9.03199 18.5042C9.50495 19.0749 9.78363 19.7786 9.8278 20.5325C9.87204 21.2864 9.67751 22.0177 9.27445 22.6399C8.30455 21.4661 8.20582 19.7833 9.03199 18.5042ZM8.24566 25.746C7.51799 25.9482 6.76213 25.9125 6.06897 25.6498C7.00283 24.4651 8.6059 24.0115 10.0209 24.5261C10.0329 24.5322 10.045 24.5382 10.0569 24.5442C9.59911 25.1248 8.97146 25.5442 8.24566 25.746ZM20.1727 20.5325C20.2169 19.7785 20.4957 19.0746 20.9689 18.5039C21.3721 19.126 21.5667 19.8576 21.5226 20.6116C21.4783 21.3656 21.1995 22.0695 20.7264 22.6402C20.3231 22.0181 20.1286 21.2865 20.1727 20.5325ZM23.9313 25.6495C22.5087 26.1862 20.887 25.7363 19.9441 24.5441C19.956 24.5381 19.9678 24.5321 19.9797 24.5262C21.3945 24.0116 22.9974 24.465 23.9313 25.6495ZM27.4882 21.4862C26.355 22.5025 24.6779 22.6696 23.3665 21.8965C24.4997 20.8802 26.1768 20.7131 27.4882 21.4862ZM24.6126 17.1109C23.9408 16.7975 23.3878 16.2808 23.0251 15.6185C22.6625 14.9561 22.5251 14.2118 22.6232 13.4771C24.0021 14.1226 24.8118 15.6014 24.6126 17.1109ZM22.1217 10.625C21.4402 10.2998 20.8934 9.7764 20.5431 9.1232C22.0393 8.84042 23.5608 9.5661 24.2821 10.907C23.5542 11.0457 22.8034 10.9501 22.1217 10.625ZM24.7487 9.33314C24.0657 7.9723 24.3458 6.30994 25.437 5.24799C25.7703 5.90998 25.8847 6.65822 25.7592 7.40283C25.6337 8.14749 25.2806 8.81693 24.7487 9.33314Z" fill="white"/>
<path d="M17.976 4.25446C17.9183 4.06951 17.7649 3.93467 17.5803 3.90663L16.1011 3.68251L15.4396 2.2849C15.357 2.11047 15.1866 2 15 2C14.8134 2 14.643 2.11047 14.5604 2.2849L13.8989 3.68251L12.4197 3.90663C12.235 3.93458 12.0817 4.06946 12.024 4.25451C11.9664 4.43959 12.0144 4.64267 12.148 4.77849L13.2184 5.86637L12.9657 7.40248C12.9342 7.59425 13.0097 7.78801 13.1607 7.9024C13.3116 8.01675 13.5118 8.0318 13.6769 7.94131L15 7.2161L16.323 7.94131C16.3947 7.9806 16.4731 7.99997 16.551 7.99997C16.6526 7.99997 16.7538 7.96706 16.8392 7.90236C16.9902 7.78797 17.0658 7.59421 17.0342 7.40244L16.7815 5.86632L17.8519 4.77845C17.9856 4.64267 18.0336 4.43955 17.976 4.25446ZM15.9127 5.32189C15.7972 5.4393 15.7444 5.60847 15.7718 5.77432L15.9001 6.55461L15.2281 6.1862C15.1567 6.14704 15.0783 6.12754 15 6.12754C14.9216 6.12754 14.8433 6.14712 14.7719 6.1862L14.0998 6.55461L14.2282 5.77432C14.2555 5.60851 14.2027 5.43934 14.0872 5.32189L13.5436 4.76935L14.2949 4.65548C14.4545 4.63132 14.5926 4.52672 14.664 4.37588L15 3.66599L15.336 4.37588C15.4074 4.52672 15.5454 4.63128 15.7051 4.65548L16.4564 4.76935L15.9127 5.32189Z" fill="white"/>
<path d="M10.98 2.87872C10.9319 2.72459 10.8041 2.61223 10.6502 2.58886L9.41756 2.40209L8.86631 1.23741C8.79747 1.09205 8.65547 1 8.5 1C8.34449 1 8.2025 1.09205 8.13369 1.23741L7.58244 2.40209L6.34976 2.58886C6.19587 2.61215 6.06805 2.72455 6.01999 2.87876C5.97197 3.03299 6.01203 3.20222 6.12337 3.31541L7.01536 4.22197L6.80476 5.50207C6.77846 5.66188 6.84144 5.82334 6.96727 5.91867C7.09303 6.01396 7.25984 6.0265 7.39746 5.95109L8.5 5.34675L9.60251 5.95109C9.66229 5.98383 9.72754 5.99997 9.79252 5.99997C9.87719 5.99997 9.96151 5.97255 10.0327 5.91863C10.1585 5.82331 10.2215 5.66184 10.1952 5.50203L9.98457 4.22194L10.8766 3.31538C10.988 3.20222 11.028 3.03296 10.98 2.87872ZM9.26061 3.76824C9.16433 3.86608 9.12037 4.00706 9.14313 4.14527L9.25006 4.7955L8.69005 4.4885C8.63058 4.45586 8.56526 4.43962 8.49997 4.43962C8.43467 4.43962 8.36938 4.45594 8.30988 4.4885L7.74987 4.7955L7.85681 4.14527C7.87956 4.00709 7.83561 3.86612 7.73932 3.76824L7.28631 3.30779L7.91241 3.2129C8.04544 3.19277 8.16048 3.1056 8.21998 2.9799L8.5 2.38833L8.77999 2.9799C8.83952 3.1056 8.95449 3.19273 9.08756 3.2129L9.71365 3.30779L9.26061 3.76824Z" fill="white"/>
<path d="M23.98 2.87872C23.9319 2.72459 23.8041 2.61223 23.6502 2.58886L22.4176 2.40209L21.8663 1.23741C21.7975 1.09205 21.6555 1 21.5 1C21.3445 1 21.2025 1.09205 21.1337 1.23741L20.5824 2.40209L19.3498 2.58886C19.1959 2.61215 19.068 2.72455 19.02 2.87876C18.972 3.03299 19.012 3.20222 19.1234 3.31541L20.0154 4.22197L19.8048 5.50207C19.7785 5.66188 19.8414 5.82334 19.9673 5.91867C20.093 6.01396 20.2598 6.0265 20.3975 5.95109L21.5 5.34675L22.6025 5.95109C22.6623 5.98383 22.7275 5.99997 22.7925 5.99997C22.8772 5.99997 22.9615 5.97255 23.0327 5.91863C23.1585 5.82331 23.2215 5.66184 23.1952 5.50203L22.9846 4.22194L23.8766 3.31538C23.988 3.20222 24.028 3.03296 23.98 2.87872ZM22.2606 3.76824C22.1643 3.86608 22.1204 4.00706 22.1431 4.14527L22.2501 4.7955L21.69 4.4885C21.6306 4.45586 21.5653 4.43962 21.5 4.43962C21.4347 4.43962 21.3694 4.45594 21.3099 4.4885L20.7499 4.7955L20.8568 4.14527C20.8796 4.00709 20.8356 3.86612 20.7393 3.76824L20.2863 3.30779L20.9124 3.2129C21.0454 3.19277 21.1605 3.1056 21.22 2.9799L21.5 2.38833L21.78 2.9799C21.8395 3.1056 21.9545 3.19273 22.0876 3.2129L22.7137 3.30779L22.2606 3.76824Z" fill="white"/>
</g>
<defs>
<clipPath id="clip0">
<rect width="30" height="30" fill="white"/>
</clipPath>
</defs>
</svg>
