<svg width="14" height="14" viewBox="0 0 14 14" fill="none" xmlns="http://www.w3.org/2000/svg">
<path d="M6.68746 0C6.27381 0 5.9397 0.334109 5.9397 0.747766L5.93439 5.92909L0.747766 5.92909C0.334108 5.92909 0 6.2632 0 6.67686C0 7.09051 0.334108 7.42462 0.747766 7.42462L5.93439 7.42462L5.93439 12.6112C5.93439 13.0249 6.2685 13.359 6.68216 13.359C7.09582 13.359 7.42992 13.0249 7.42992 12.6112V7.42462L12.6166 7.42462C13.0302 7.42462 13.3643 7.09051 13.3643 6.67686C13.3643 6.2632 13.0302 5.92909 12.6166 5.92909L7.42992 5.92909V0.742462C7.42992 0.339411 7.09051 0 6.68746 0Z" fill="#6D9CC8"/>
</svg>
