<svg width="11" height="7" viewBox="0 0 11 7" fill="none" xmlns="http://www.w3.org/2000/svg">
<path d="M5.4996 2.03823L9.83126 6.51329C9.90473 6.58919 9.98928 6.627 10.0848 6.627C10.1803 6.627 10.2649 6.58923 10.3383 6.51329L10.8895 5.94415C10.9629 5.86825 10.9998 5.7809 10.9998 5.68235C10.9998 5.58352 10.9629 5.49617 10.8895 5.42031L5.75317 0.113789C5.6797 0.0378898 5.59515 0 5.49964 0C5.40409 0 5.31958 0.0378898 5.24611 0.113789L0.109823 5.42027C0.0362396 5.49613 -0.000243187 5.5834 -0.000243187 5.68231C-0.000243187 5.78086 0.0363169 5.86821 0.109823 5.94407L0.660619 6.51325C0.734086 6.58915 0.818673 6.62696 0.914262 6.62696C1.0097 6.62696 1.0942 6.58919 1.16767 6.51325L5.4996 2.03823Z" fill="#ABABAB"/>
</svg>
