<svg width="11" height="7" viewBox="0 0 11 7" fill="none" xmlns="http://www.w3.org/2000/svg">
<path d="M5.50015 4.58872L1.1685 0.113661C1.09503 0.0377622 1.01048 -4.76837e-05 0.914968 -4.76837e-05C0.819417 -4.76837e-05 0.73487 0.0377221 0.661441 0.113661L0.110298 0.682805C0.036869 0.758704 0 0.846051 0 0.944604C0 1.04344 0.036869 1.13078 0.110298 1.20664L5.24659 6.51316C5.32006 6.58906 5.4046 6.62695 5.50012 6.62695C5.59567 6.62695 5.68017 6.58906 5.75364 6.51316L10.8899 1.20668C10.9635 1.13082 11 1.04356 11 0.944643C11 0.84609 10.9634 0.758744 10.8899 0.682885L10.3391 0.113701C10.2657 0.0378017 10.1811 -8.10623e-06 10.0855 -8.10623e-06C9.99006 -8.10623e-06 9.90555 0.0377617 9.83208 0.113701L5.50015 4.58872Z" fill="#ABABAB"/>
</svg>
