<svg width="11" height="10" viewBox="0 0 11 10" fill="none" xmlns="http://www.w3.org/2000/svg">
<path d="M10.4594 0.282539C10.1669 -0.00996077 9.69441 -0.00996077 9.40191 0.282539L5.73441 3.94254L2.06691 0.275039C1.77441 -0.0174609 1.30191 -0.0174609 1.00941 0.275039C0.716914 0.567539 0.716914 1.04004 1.00941 1.33254L4.67691 5.00004L1.00941 8.66754C0.716914 8.96004 0.716914 9.43254 1.00941 9.72504C1.30191 10.0175 1.77441 10.0175 2.06691 9.72504L5.73441 6.05754L9.40191 9.72504C9.69441 10.0175 10.1669 10.0175 10.4594 9.72504C10.7519 9.43254 10.7519 8.96004 10.4594 8.66754L6.79191 5.00004L10.4594 1.33254C10.7444 1.04754 10.7444 0.567539 10.4594 0.282539Z" fill="black"/>
</svg>
