<svg width="20" height="13" viewBox="0 0 20 13" fill="none" xmlns="http://www.w3.org/2000/svg">
<path d="M3.33333 5.5C4.50633 5.5 5.47733 4.65979 5.64 3.57143H18.6667C18.851 3.57143 19 3.42775 19 3.25C19 3.07225 18.851 2.92857 18.6667 2.92857H5.64C5.47733 1.84021 4.50633 1 3.33333 1C2.04667 1 1 2.00961 1 3.25C1 4.49039 2.04667 5.5 3.33333 5.5ZM3.33333 1.64286C4.25233 1.64286 5 2.36382 5 3.25C5 4.13618 4.25233 4.85714 3.33333 4.85714C2.41433 4.85714 1.66667 4.13618 1.66667 3.25C1.66667 2.36382 2.41433 1.64286 3.33333 1.64286Z" fill="#939393" stroke="#939393"/>
<path d="M18.6667 9.6784H12.456C12.324 8.52062 11.3043 7.61676 10.069 7.61676C8.83367 7.61676 7.814 8.52094 7.682 9.6784H1.33333C1.14933 9.6784 1 9.82208 1 9.99983C1 10.1776 1.14933 10.3213 1.33333 10.3213H7.703C7.89533 11.4141 8.88167 12.2498 10.069 12.2498C11.2563 12.2498 12.2423 11.4141 12.4347 10.3213H18.6667C18.851 10.3213 19 10.1776 19 9.99983C19 9.82208 18.851 9.6784 18.6667 9.6784ZM10.069 11.607C9.112 11.607 8.33333 10.8561 8.33333 9.9333C8.33333 9.01047 9.112 8.25962 10.069 8.25962C11.026 8.25962 11.8047 9.01047 11.8047 9.9333C11.8047 10.8561 11.026 11.607 10.069 11.607Z" fill="#939393" stroke="#939393"/>
</svg>
