<svg id="Layer_1" data-name="Layer 1" xmlns="http://www.w3.org/2000/svg" viewBox="0 0 512 512"><defs><style>.cls-1{fill:#231f20;}</style></defs><title>male-symbol-glyph</title><path class="cls-1" d="M307.2,102.4a204,204,0,0,0-130.6,47.05L65.55,38.4h56V0H0V121.6H38.4v-56L149.45,176.6A204,204,0,0,0,102.4,307.2c0,113.11,91.69,204.8,204.8,204.8S512,420.31,512,307.2,420.31,102.4,307.2,102.4Zm0,326.4c-67.86,0-121.6-53.74-121.6-121.6s53.74-121.6,121.6-121.6,121.6,53.74,121.6,121.6S375.06,428.8,307.2,428.8Z"/></svg>