<svg width="21" height="21" viewBox="0 0 21 21" fill="none" xmlns="http://www.w3.org/2000/svg">
<path d="M10.4999 6.34616C8.20953 6.34616 6.34607 8.20963 6.34607 10.5C6.34607 12.7904 8.20953 14.6539 10.4999 14.6539C12.7903 14.6539 14.6538 12.7904 14.6538 10.5C14.6538 8.20963 12.7903 6.34616 10.4999 6.34616ZM10.4999 13.2692C8.97291 13.2692 7.73072 12.027 7.73072 10.5C7.73072 8.97305 8.97296 7.73081 10.4999 7.73081C12.0269 7.73081 13.2691 8.97305 13.2691 10.5C13.2691 12.027 12.0269 13.2692 10.4999 13.2692Z" fill="#A1A1A1"/>
<path fill-rule="evenodd" clip-rule="evenodd" d="M4.42237 5.95691C1.89294 7.71561 0.245462 9.93781 0.13326 10.0913C-0.04442 10.3348 -0.04442 10.665 0.13326 10.9085C0.320661 11.1651 4.79088 17.1923 10.4999 17.1923C11.8883 17.1923 13.2035 16.8358 14.4016 16.2926L13.3699 15.224C12.4632 15.5835 11.4978 15.8077 10.4999 15.8077C6.2946 15.8077 2.65236 11.8073 1.57418 10.4995C2.17285 9.77181 3.56217 8.21276 5.40219 6.97173L4.42237 5.95691ZM14.3337 14.7826L15.3358 15.8204C15.7898 15.5675 16.2231 15.2918 16.6329 15.0043L15.6538 13.9902C15.2361 14.2748 14.7947 14.5435 14.3337 14.7826ZM7.69735 5.74963C7.2034 5.94125 6.72658 6.17344 6.27112 6.43199L5.27767 5.40307C5.71893 5.13832 6.18164 4.89311 6.66298 4.67832L7.69735 5.74963ZM16.4685 13.3944C17.8738 12.2963 18.9255 11.1084 19.4256 10.5005C18.347 9.19201 14.705 5.19232 10.4999 5.19232C9.90683 5.19232 9.32525 5.2715 8.76066 5.41122L7.67302 4.28475C8.56809 3.98688 9.51558 3.80771 10.4999 3.80771C16.2089 3.80771 20.6789 9.83493 20.8665 10.0916C21.0445 10.3348 21.0445 10.6653 20.8665 10.9087C20.7676 11.044 19.4765 12.7856 17.4404 14.4009L16.4685 13.3944Z" fill="#A1A1A1"/>
<path fill-rule="evenodd" clip-rule="evenodd" d="M3.47905 2.46045C3.77704 2.17274 4.25184 2.18107 4.53955 2.47905L18.5396 16.9791C18.8273 17.277 18.8189 17.7518 18.5209 18.0396C18.223 18.3273 17.7482 18.3189 17.4605 18.0209L3.46045 3.52095C3.17274 3.22296 3.18107 2.74816 3.47905 2.46045Z" fill="#A1A1A1"/>
</svg>
