<svg width="23" height="23" viewBox="0 0 23 23" fill="none" xmlns="http://www.w3.org/2000/svg">
<path d="M22.9827 8.14966L21.3384 9.73676L13.8541 8.6641L11.5031 3.99475L9.15202 8.6641L3.93959 9.40651L7.70986 13.0088L6.81506 18.1223L11.503 15.7066V17.7276L4.42178 21.3766L5.77474 13.6446L0.0234375 8.14966L7.96946 7.0179L11.5031 0L15.0367 7.0179L22.9827 8.14966ZM18.6892 11.1429L20.4857 11.1429L20.4856 23L18.689 23V21.3831H15.096V23L13.2995 22.9999L13.2996 11.1428L15.0961 11.1429V12.7598H18.6892V11.1429ZM15.0961 14.5563V16.1732H18.6891V14.5563H15.0961ZM18.689 19.5866V17.9697H15.096V19.5866H18.689Z" fill="#2C2C2C"/>
</svg>
