<svg width="23" height="23" viewBox="0 0 23 23" fill="none" xmlns="http://www.w3.org/2000/svg">
<path d="M14.7031 0.841896C14.1602 0.299 13.438 0 12.6699 0C11.9017 0 11.18 0.299 10.6371 0.841896L0.84028 10.638C-0.280093 11.7587 -0.280093 13.5829 0.84028 14.7037L8.29474 22.1576C8.83815 22.701 9.56031 23 10.3285 23C11.0966 23 11.8183 22.701 12.3612 22.1576L22.158 12.362C22.701 11.8191 23 11.097 23 10.3294C23 9.56129 22.701 8.83967 22.158 8.29629L14.7031 0.841896ZM12.7379 8.90531C13.1117 8.53204 13.7198 8.53204 14.0936 8.90531C14.4673 9.27906 14.4673 9.88713 14.0936 10.2609C13.7198 10.6346 13.1117 10.6346 12.7379 10.2609C12.3646 9.8876 12.3646 9.27954 12.7379 8.90531ZM16.0022 8.35427C15.8652 8.06485 15.6879 7.78933 15.4487 7.55023C15.2096 7.31112 14.9346 7.13431 14.6451 6.99727L16.3966 5.24592L17.7537 6.60292L16.0022 8.35427ZM20.8029 11.0069L11.0056 20.8025C10.6438 21.1643 10.0122 21.1643 9.6504 20.8025L2.19594 13.3486C1.82216 12.9749 1.82216 12.3668 2.19594 11.9931L11.9927 2.19698C12.367 1.82323 12.9746 1.82371 13.3484 2.19698L15.0419 3.89035L11.3827 7.54927C11.3348 7.59719 11.2931 7.64942 11.2576 7.70404C10.2767 8.832 10.3103 10.5431 11.3837 11.6164C11.9443 12.1766 12.6804 12.4569 13.4169 12.4569C14.0902 12.4569 14.7568 12.2106 15.2959 11.742C15.3505 11.706 15.4027 11.6648 15.4507 11.6169L19.1098 7.958L20.8033 9.65137C21.1762 10.0251 21.1762 10.6332 20.8029 11.0069Z" fill="#2C2C2C"/>
</svg>
