<svg width="6" height="10" viewBox="0 0 6 10" fill="none" xmlns="http://www.w3.org/2000/svg">
<path d="M4.15478 4.99986L0.102785 8.93773C0.0341043 9.00452 -2.00272e-05 9.08138 -2.00272e-05 9.16821C-2.00272e-05 9.25507 0.0343208 9.33194 0.102785 9.39869L0.618362 9.89973C0.687043 9.96648 0.76616 10 0.855351 10C0.944832 10 1.0238 9.96648 1.09263 9.89973L5.89698 5.23037C5.9657 5.16359 6 5.08672 6 4.9999C6 4.91303 5.9657 4.8362 5.89698 4.76942L1.09263 0.10006C1.02391 0.0331669 0.945084 0 0.855604 0C0.766124 0 0.687332 0.0332365 0.618615 0.10006L0.103074 0.600783C0.0343928 0.667572 0.000125408 0.744469 0.000125408 0.831368C0.000125408 0.918127 0.0343566 0.994953 0.103074 1.06174L4.15478 4.99986Z" fill="#AFAFAF"/>
</svg>
