<svg width="12" height="7" viewBox="0 0 12 7" fill="none" xmlns="http://www.w3.org/2000/svg">
<path d="M6.01376 4.58872L1.7606 0.113648C1.68846 0.0377493 1.60545 -6.05583e-05 1.51167 -6.05583e-05C1.41785 -6.05583e-05 1.33483 0.0377092 1.26274 0.113648L0.72158 0.682794C0.649482 0.758693 0.613281 0.846039 0.613281 0.944593C0.613281 1.04343 0.649482 1.13077 0.72158 1.20663L5.76479 6.51316C5.83693 6.58906 5.91994 6.62695 6.01372 6.62695C6.10754 6.62695 6.19052 6.58906 6.26266 6.51316L11.3059 1.20667C11.3781 1.13081 11.4139 1.04354 11.4139 0.944633C11.4139 0.846079 11.378 0.758733 11.3059 0.682873L10.7651 0.113688C10.6929 0.0377889 10.6099 -2.14577e-05 10.516 -2.14577e-05C10.4223 -2.14577e-05 10.3393 0.0377488 10.2672 0.113688L6.01376 4.58872Z" fill="white"/>
<path d="M6.01376 4.58872L1.7606 0.113648C1.68846 0.0377493 1.60545 -6.05583e-05 1.51167 -6.05583e-05C1.41785 -6.05583e-05 1.33483 0.0377092 1.26274 0.113648L0.72158 0.682794C0.649482 0.758693 0.613281 0.846039 0.613281 0.944593C0.613281 1.04343 0.649482 1.13077 0.72158 1.20663L5.76479 6.51316C5.83693 6.58906 5.91994 6.62695 6.01372 6.62695C6.10754 6.62695 6.19052 6.58906 6.26266 6.51316L11.3059 1.20667C11.3781 1.13081 11.4139 1.04354 11.4139 0.944633C11.4139 0.846079 11.378 0.758733 11.3059 0.682873L10.7651 0.113688C10.6929 0.0377889 10.6099 -2.14577e-05 10.516 -2.14577e-05C10.4223 -2.14577e-05 10.3393 0.0377488 10.2672 0.113688L6.01376 4.58872Z" fill="url(#paint0_linear)"/>
<defs>
<linearGradient id="paint0_linear" x1="0.613281" y1="3.31345" x2="11.4139" y2="3.31345" gradientUnits="userSpaceOnUse">
<stop stop-color="white"/>
<stop offset="1" stop-color="white" stop-opacity="0"/>
</linearGradient>
</defs>
</svg>
