<svg width="12" height="7" viewBox="0 0 12 7" fill="none" xmlns="http://www.w3.org/2000/svg">
<path d="M6.01358 2.03823L10.2667 6.51329C10.3389 6.58919 10.4219 6.627 10.5157 6.627C10.6095 6.627 10.6925 6.58923 10.7646 6.51329L11.3058 5.94415C11.3779 5.86825 11.4141 5.7809 11.4141 5.68235C11.4141 5.58351 11.3779 5.49617 11.3058 5.42031L6.26255 0.113789C6.19042 0.0378897 6.1074 0 6.01362 0C5.9198 0 5.83682 0.0378897 5.76469 0.113789L0.721476 5.42027C0.649226 5.49613 0.613403 5.5834 0.613403 5.68231C0.613403 5.78086 0.649302 5.86821 0.721476 5.94407L1.26229 6.51325C1.33443 6.58915 1.41748 6.62696 1.51134 6.62696C1.60504 6.62696 1.68802 6.58919 1.76016 6.51325L6.01358 2.03823Z" fill="white"/>
<path d="M6.01358 2.03823L10.2667 6.51329C10.3389 6.58919 10.4219 6.627 10.5157 6.627C10.6095 6.627 10.6925 6.58923 10.7646 6.51329L11.3058 5.94415C11.3779 5.86825 11.4141 5.7809 11.4141 5.68235C11.4141 5.58351 11.3779 5.49617 11.3058 5.42031L6.26255 0.113789C6.19042 0.0378897 6.1074 0 6.01362 0C5.9198 0 5.83682 0.0378897 5.76469 0.113789L0.721476 5.42027C0.649226 5.49613 0.613403 5.5834 0.613403 5.68231C0.613403 5.78086 0.649302 5.86821 0.721476 5.94407L1.26229 6.51325C1.33443 6.58915 1.41748 6.62696 1.51134 6.62696C1.60504 6.62696 1.68802 6.58919 1.76016 6.51325L6.01358 2.03823Z" fill="url(#paint0_linear)"/>
<defs>
<linearGradient id="paint0_linear" x1="11.4141" y1="3.3135" x2="0.613403" y2="3.3135" gradientUnits="userSpaceOnUse">
<stop stop-color="white"/>
<stop offset="1" stop-color="white" stop-opacity="0"/>
</linearGradient>
</defs>
</svg>
