<svg width="21" height="21" viewBox="0 0 21 21" fill="none" xmlns="http://www.w3.org/2000/svg">
<path d="M19.1543 0C18.8565 0 2.14243 0 1.8457 0C0.828003 0 0 0.828003 0 1.8457V2.78313C0 4.30151 0.522308 5.79073 1.47095 6.97634C2.25986 7.96248 3.38203 8.73489 4.63076 9.15113L5.28284 9.36839C6.04019 10.6024 7.22804 11.5529 8.6543 12.0044V12.9609C8.6543 13.3001 8.37824 13.5762 8.03906 13.5762C7.02136 13.5762 6.19336 14.4042 6.19336 15.4219V16.0371H5.57812C5.2383 16.0371 4.96289 16.3125 4.96289 16.6523V19.7695H4.34766C4.00784 19.7695 3.73242 20.0449 3.73242 20.3848C3.73242 20.7246 4.00784 21 4.34766 21H16.6523C16.9922 21 17.2676 20.7246 17.2676 20.3848C17.2676 20.0449 16.9922 19.7695 16.6523 19.7695H16.0371V16.6523C16.0371 16.3125 15.7617 16.0371 15.4219 16.0371H14.8066V15.4219C14.8066 14.4042 13.9786 13.5762 12.9609 13.5762C12.6218 13.5762 12.3457 13.3001 12.3457 12.9609V12.0044C13.7704 11.5534 14.9571 10.6046 15.7146 9.37255L16.4022 9.15369C16.4048 9.15289 16.4075 9.15193 16.4101 9.15113C17.6404 8.74097 18.719 7.98891 19.529 6.97634C20.4777 5.79073 21 4.30151 21 2.78313V1.8457C21 0.828003 20.172 0 19.1543 0ZM2.43178 6.20762C1.65713 5.23927 1.23047 4.02322 1.23047 2.78313V1.8457C1.23047 1.50652 1.50652 1.23047 1.8457 1.23047H3.79699L4.42312 6.86563C4.45981 7.1952 4.52374 7.51707 4.61121 7.8295C3.75085 7.46789 2.98773 6.90248 2.43178 6.20762ZM6.19336 19.7695V17.2676H14.8066V19.7695H6.19336ZM11.5925 10.9355C11.3131 10.9997 11.1152 11.2484 11.1152 11.535V12.9609C11.1152 13.9786 11.9432 14.8066 12.9609 14.8066C13.3001 14.8066 13.5762 15.0827 13.5762 15.4219V16.0371H7.42383V15.4219C7.42383 15.0827 7.69988 14.8066 8.03906 14.8066C9.05676 14.8066 9.88477 13.9786 9.88477 12.9609V11.535C9.88477 11.2484 9.6869 10.9997 9.40748 10.9355C7.38538 10.4702 5.87389 8.78007 5.64606 6.72977L5.03499 1.23047H15.965L15.3539 6.72977C15.1261 8.78007 13.6146 10.4702 11.5925 10.9355ZM19.7695 2.78313C19.7695 4.02322 19.3429 5.23927 18.5682 6.20762C17.9874 6.93372 17.2376 7.49545 16.3833 7.84856C16.4737 7.53005 16.5394 7.20193 16.5769 6.86563L17.203 1.23047H19.1543C19.4935 1.23047 19.7695 1.50652 19.7695 1.8457V2.78313Z" fill="#D10001"/>
</svg>
