<svg width="21" height="21" viewBox="0 0 21 21" fill="none" xmlns="http://www.w3.org/2000/svg">
<path d="M20.8665 10.0915C20.6789 9.8349 16.2089 3.80768 10.4999 3.80768C4.79088 3.80768 0.320661 9.8349 0.13326 10.0913C-0.04442 10.3348 -0.04442 10.665 0.13326 10.9084C0.320661 11.1651 4.79088 17.1923 10.4999 17.1923C16.2089 17.1923 20.6789 11.165 20.8665 10.9087C21.0445 10.6652 21.0445 10.3348 20.8665 10.0915ZM10.4999 15.8077C6.2946 15.8077 2.65236 11.8073 1.57418 10.4995C2.65097 9.19058 6.28557 5.19229 10.4999 5.19229C14.705 5.19229 18.347 9.19198 19.4256 10.5005C18.3488 11.8094 14.7142 15.8077 10.4999 15.8077Z" fill="#A1A1A1"/>
<path d="M10.4999 6.34613C8.20953 6.34613 6.34607 8.2096 6.34607 10.5C6.34607 12.7904 8.20953 14.6539 10.4999 14.6539C12.7903 14.6539 14.6538 12.7904 14.6538 10.5C14.6538 8.2096 12.7903 6.34613 10.4999 6.34613ZM10.4999 13.2692C8.97291 13.2692 7.73072 12.027 7.73072 10.5C7.73072 8.97302 8.97296 7.73078 10.4999 7.73078C12.0269 7.73078 13.2691 8.97302 13.2691 10.5C13.2691 12.027 12.0269 13.2692 10.4999 13.2692Z" fill="#A1A1A1"/>
</svg>
