<svg width="20" height="20" viewBox="0 0 20 20" fill="none" xmlns="http://www.w3.org/2000/svg">
<path d="M8.34373 9.99972L0.206458 17.8755C0.068532 18.009 2.86102e-06 18.1628 2.86102e-06 18.3364C2.86102e-06 18.5101 0.0689669 18.6639 0.206458 18.7974L1.24185 19.7995C1.37977 19.933 1.53866 20 1.71777 20C1.89747 20 2.05606 19.933 2.19427 19.7995L11.8424 10.4607C11.9804 10.3272 12.0493 10.1734 12.0493 9.99979C12.0493 9.82606 11.9804 9.67241 11.8424 9.53883L2.19427 0.200121C2.05628 0.0663338 1.89797 0 1.71828 0C1.53858 0 1.38035 0.066473 1.24235 0.200121L0.207038 1.20157C0.0691118 1.33514 0.000294685 1.48894 0.000294685 1.66274C0.000294685 1.83625 0.0690393 1.98991 0.207038 2.12348L8.34373 9.99972Z" fill="#868686"/>
<path d="M16.2941 9.99972L8.15765 17.8755C8.01965 18.009 7.95091 18.1628 7.95091 18.3364C7.95091 18.5101 8.01958 18.6639 8.15765 18.7974L9.19246 19.7995C9.33045 19.933 9.48927 20 9.66845 20C9.84815 20 10.007 19.933 10.1449 19.7995L19.7931 10.4607C19.9311 10.3272 20 10.1734 20 9.99979C20 9.82606 19.9311 9.67241 19.7931 9.53883L10.145 0.200121C10.007 0.0663338 9.84837 0 9.66853 0C9.48934 0 9.33053 0.066473 9.1926 0.200121L8.15772 1.20157C8.01972 1.33514 7.95098 1.48894 7.95098 1.66274C7.95098 1.83625 8.01965 1.98991 8.15772 2.12348L16.2941 9.99972Z" fill="#868686"/>
</svg>
