<svg width="25" height="25" viewBox="0 0 25 25" fill="none" xmlns="http://www.w3.org/2000/svg">
<path d="M22.9172 2.34375H19.5312V0.78125C19.5312 0.349219 19.182 0 18.75 0C18.318 0 17.9688 0.349219 17.9688 0.78125V2.34375H13.2812V0.78125C13.2812 0.349219 12.9312 0 12.5 0C12.0688 0 11.7188 0.349219 11.7188 0.78125V2.34375H7.03125V0.78125C7.03125 0.349219 6.68125 0 6.25 0C5.81875 0 5.46875 0.349219 5.46875 0.78125V2.34375H2.08359C0.932813 2.34375 0 3.27578 0 4.42656V22.9164C0 24.0672 0.932813 25 2.08359 25H22.9172C24.068 25 25 24.0672 25 22.9164V4.42656C25 3.27578 24.068 2.34375 22.9172 2.34375ZM23.4375 22.9164C23.4375 23.2039 23.2039 23.4375 22.9172 23.4375H2.08359C1.79609 23.4375 1.5625 23.2039 1.5625 22.9164V4.42656C1.5625 4.13984 1.79609 3.90625 2.08359 3.90625H5.46875V5.46875C5.46875 5.90078 5.81875 6.25 6.25 6.25C6.68125 6.25 7.03125 5.90078 7.03125 5.46875V3.90625H11.7188V5.46875C11.7188 5.90078 12.0688 6.25 12.5 6.25C12.9312 6.25 13.2812 5.90078 13.2812 5.46875V3.90625H17.9688V5.46875C17.9688 5.90078 18.318 6.25 18.75 6.25C19.182 6.25 19.5312 5.90078 19.5312 5.46875V3.90625H22.9172C23.2039 3.90625 23.4375 4.13984 23.4375 4.42656V22.9164Z" fill="#868686"/>
<path d="M8.59375 9.375H5.46875V11.7188H8.59375V9.375Z" fill="#868686"/>
<path d="M8.59375 13.2812H5.46875V15.625H8.59375V13.2812Z" fill="#868686"/>
<path d="M8.59375 17.1875H5.46875V19.5312H8.59375V17.1875Z" fill="#868686"/>
<path d="M14.0625 17.1875H10.9375V19.5312H14.0625V17.1875Z" fill="#868686"/>
<path d="M14.0625 13.2812H10.9375V15.625H14.0625V13.2812Z" fill="#868686"/>
<path d="M14.0625 9.375H10.9375V11.7188H14.0625V9.375Z" fill="#868686"/>
<path d="M19.5312 17.1875H16.4062V19.5312H19.5312V17.1875Z" fill="#868686"/>
<path d="M19.5312 13.2812H16.4062V15.625H19.5312V13.2812Z" fill="#868686"/>
<path d="M19.5312 9.375H16.4062V11.7188H19.5312V9.375Z" fill="#868686"/>
</svg>
