<svg width="26" height="26" viewBox="0 0 26 26" fill="none" xmlns="http://www.w3.org/2000/svg">
<path fill-rule="evenodd" clip-rule="evenodd" d="M16.9909 1.74806V0H6.1319V1.75693H3.12106V8.39038V11.5H1H0V12.5V24.1666V25.1666H1H3.82843V25H18.6771V25.1667H24.334H25.334V24.1667V11.25V10.764L24.9518 10.4637L19.9521 6.53564V1.75989L16.9909 1.74806ZM3.12106 23.1666V13.5H2V23.1666H3.12106ZM18.4716 7.79498L18.4129 7.86971L18.4716 7.91584V23.255H12.3514V19.6483H10.8707V23.255H4.60173V9.33981V3.50197H7.61257V1.74504H15.5102V3.48712L18.4716 3.49901V7.79498ZM19.9521 9.07909L23.334 11.7361V23.1667H19.9521V21.1454H21.6383V19.4006H19.9521V17.6551H21.6383V15.9102H19.9521V14.2448H21.6383V12.5H19.9521V9.07909ZM10.8706 5.69716H7.9095V7.44198H10.8706V5.69716ZM7.9095 12.5971H10.8706V14.3419H7.9095V12.5971ZM12.3511 12.5971H15.3122V14.3419H12.3511V12.5971ZM10.8706 16.0874H7.9095V17.8323H10.8706V16.0874ZM12.3511 16.0874H15.3122V17.8323H12.3511V16.0874ZM12.3511 5.69716H15.3122V7.44198H12.3511V5.69716ZM10.8706 9.18687H7.9095V10.9317H10.8706V9.18687ZM12.3511 9.18687H15.3122V10.9317H12.3511V9.18687Z" fill="#868686"/>
</svg>
