<svg width="25" height="25" viewBox="0 0 25 25" fill="none" xmlns="http://www.w3.org/2000/svg">
<path d="M12.117 16.7588C11.4022 16.7588 10.8235 17.3545 10.8235 18.0694C10.8235 18.7672 11.3852 19.3799 12.117 19.3799C12.8488 19.3799 13.4275 18.7672 13.4275 18.0694C13.4275 17.3545 12.8319 16.7588 12.117 16.7588Z" fill="#868686"/>
<path d="M12.3383 6.83603C10.0406 6.83603 8.98535 8.1976 8.98535 9.11669C8.98535 9.78051 9.54697 10.0869 10.0065 10.0869C10.9256 10.0869 10.5512 8.77631 12.2872 8.77631C13.1382 8.77631 13.819 9.15077 13.819 9.93368C13.819 10.8528 12.8659 11.3804 12.3042 11.857C11.8107 12.2825 11.1639 12.9803 11.1639 14.444C11.1639 15.329 11.4021 15.5844 12.1 15.5844C12.934 15.5844 13.1041 15.2099 13.1041 14.8866C13.1041 14.0015 13.1212 13.4909 14.0573 12.7591C14.5168 12.4016 15.9636 11.2443 15.9636 9.64438C15.9636 8.04447 14.5168 6.83603 12.3383 6.83603Z" fill="#868686"/>
<path d="M12.5 0C5.5916 0 0 5.59067 0 12.5V24.0234C0 24.5628 0.437207 25 0.976562 25H12.5C19.4083 25 25 19.4093 25 12.5C25 5.5916 19.4093 0 12.5 0ZM12.5 23.0469H1.95312V12.5C1.95312 6.67104 6.67026 1.95312 12.5 1.95312C18.329 1.95312 23.0469 6.67026 23.0469 12.5C23.0469 18.329 18.3297 23.0469 12.5 23.0469Z" fill="#868686"/>
</svg>
