<svg width="25" height="25" viewBox="0 0 25 25" fill="none" xmlns="http://www.w3.org/2000/svg">
<path d="M11.3232 11.4805C12.7003 11.4805 13.8208 10.3601 13.8208 8.98302C13.8208 7.60573 12.7003 6.48535 11.3232 6.48535C9.94606 6.48535 8.82568 7.60573 8.82568 8.98302C8.82568 10.3601 9.94606 11.4805 11.3232 11.4805ZM11.3232 7.9502C11.8927 7.9502 12.356 8.41349 12.356 8.98302C12.356 9.55237 11.8927 10.0157 11.3232 10.0157C10.7538 10.0157 10.2905 9.55237 10.2905 8.98302C10.2905 8.41349 10.7538 7.9502 11.3232 7.9502Z" fill="#868686"/>
<path d="M24.0871 1.80664H0.912857C0.409508 1.80664 0 2.21615 0 2.7195V22.3351C0 22.8384 0.409508 23.2479 0.912857 23.2479H24.0871C24.5905 23.2479 25 22.8384 25 22.3351V2.7195C25 2.21615 24.5905 1.80664 24.0871 1.80664ZM23.5352 3.27148V14.8636L18.9281 10.2564C18.6277 9.95655 18.1393 9.95674 17.8391 10.257L11.3234 16.7727L7.16133 12.6108C7.0158 12.4651 6.8222 12.3848 6.61621 12.3848C6.41041 12.3848 6.217 12.4649 6.07147 12.6104L1.46484 17.2171V3.27148H23.5352ZM1.46484 21.7831V19.2886L6.61621 14.1373L10.778 18.2991C10.9238 18.4448 11.1174 18.5253 11.3234 18.5253C11.529 18.5253 11.7226 18.445 11.8679 18.2995L18.3838 11.7836L23.5353 16.9352V21.7831H1.46484Z" fill="#868686"/>
</svg>
