<svg width="27" height="24" viewBox="0 0 27 24" fill="none" xmlns="http://www.w3.org/2000/svg">
<path d="M14.0315 0.92374C13.715 0.692107 13.2851 0.692063 12.9687 0.923751L1.11821 9.60037C0.717406 9.89388 0.630263 10.4567 0.923833 10.8576C1.21737 11.2585 1.7803 11.3454 2.18109 11.052L13.5 2.76446L24.8189 11.0519C24.9789 11.1692 25.1655 11.2258 25.3499 11.2258C25.6261 11.2258 25.8999 11.0985 26.0762 10.8576C26.3698 10.4567 26.2826 9.89384 25.8819 9.60036L14.0315 0.92374Z" fill="#868686"/>
<path fill-rule="evenodd" clip-rule="evenodd" d="M22.5942 10.7473C22.0975 10.7473 21.6946 11.1501 21.6946 11.6469V21.7362H16.9983V16.3424C16.9983 14.4133 15.4292 12.8443 13.5002 12.8443C11.5712 12.8443 10.0022 14.4134 10.0022 16.3424V21.7363H5.30573V11.6469C5.30573 11.1501 4.90292 10.7474 4.40617 10.7474C3.90942 10.7474 3.50661 11.1501 3.50661 11.6469V22.6359C3.50661 23.1327 3.90942 23.5354 4.40617 23.5354H10.9017C11.3742 23.5354 11.7605 23.1712 11.7978 22.7088C11.8 22.6864 11.8013 22.6623 11.8013 22.6359V16.3424C11.8013 15.4058 12.5636 14.6435 13.5002 14.6435C14.4368 14.6435 15.1991 15.4059 15.1991 16.3424V22.6359C15.1991 22.6622 15.2005 22.686 15.2027 22.7083C15.2397 23.1709 15.626 23.5354 16.0987 23.5354H22.5943C23.0911 23.5354 23.4938 23.1327 23.4938 22.6359V11.6469C23.4937 11.1501 23.091 10.7473 22.5942 10.7473ZM11.7978 22.7088L11.798 22.7057L11.5487 22.6864L11.7974 22.712L11.7978 22.7088ZM5.30573 21.9863V21.7363H5.05573V21.9863H5.30573ZM10.0022 21.9863V21.7363H10.2521V21.9863H10.0022ZM16.7483 21.9862V21.7362H16.9983V21.9862H16.7483ZM21.6946 21.9862V21.7362H21.9446V21.9862H21.6946Z" fill="#868686"/>
</svg>
