<svg width="27" height="24" viewBox="0 0 27 24" fill="none" xmlns="http://www.w3.org/2000/svg">
<path fill-rule="evenodd" clip-rule="evenodd" d="M13.5 0.5C11.3859 0.5 9.66667 2.21927 9.66667 4.33333C9.66667 6.13241 10.9115 7.64103 12.5833 8.05292V11.3333H3.41667V16.4471C1.74482 16.859 0.5 18.3676 0.5 20.1667C0.5 22.2807 2.21927 24 4.33333 24C6.44739 24 8.16667 22.2807 8.16667 20.1667C8.16667 18.3676 6.92185 16.859 5.25 16.4471V13.1667H12.5833V16.4471C10.9115 16.859 9.66667 18.3676 9.66667 20.1667C9.66667 22.2807 11.3859 24 13.5 24C15.6141 24 17.3333 22.2807 17.3333 20.1667C17.3333 18.3676 16.0885 16.859 14.4167 16.4471V13.1667H21.75V16.4471C20.0781 16.859 18.8333 18.3676 18.8333 20.1667C18.8333 22.2807 20.5526 24 22.6667 24C24.7807 24 26.5 22.2807 26.5 20.1667C26.5 18.3676 25.2552 16.859 23.5833 16.4471V11.3333H14.4167V8.05292C16.0885 7.64103 17.3333 6.13241 17.3333 4.33333C17.3333 2.21927 15.6141 0.5 13.5 0.5ZM11.5 4.33333C11.5 3.23073 12.3974 2.33333 13.5 2.33333C14.6026 2.33333 15.5 3.23073 15.5 4.33333C15.5 5.43594 14.6026 6.33333 13.5 6.33333C12.3974 6.33333 11.5 5.43594 11.5 4.33333ZM2.33333 20.1667C2.33333 19.0641 3.23073 18.1667 4.33333 18.1667C5.43594 18.1667 6.33333 19.0641 6.33333 20.1667C6.33333 21.2693 5.43594 22.1667 4.33333 22.1667C3.23073 22.1667 2.33333 21.2693 2.33333 20.1667ZM11.5 20.1667C11.5 19.0641 12.3974 18.1667 13.5 18.1667C14.6026 18.1667 15.5 19.0641 15.5 20.1667C15.5 21.2693 14.6026 22.1667 13.5 22.1667C12.3974 22.1667 11.5 21.2693 11.5 20.1667ZM20.6667 20.1667C20.6667 19.0641 21.5641 18.1667 22.6667 18.1667C23.7693 18.1667 24.6667 19.0641 24.6667 20.1667C24.6667 21.2693 23.7693 22.1667 22.6667 22.1667C21.5641 22.1667 20.6667 21.2693 20.6667 20.1667Z" fill="#868686"/>
</svg>
