<svg width="50" height="50" viewBox="0 0 50 50" fill="none" xmlns="http://www.w3.org/2000/svg">
<path fill-rule="evenodd" clip-rule="evenodd" d="M19.5582 18.6981C19.5582 21.84 22.1144 24.396 25.2563 24.396C28.3982 24.396 30.9544 21.84 30.9544 18.6981C30.9544 15.5562 28.3982 13 25.2563 13C22.1144 13 19.5582 15.5562 19.5582 18.6981ZM21.2676 18.6981C21.2676 16.4985 23.0569 14.7094 25.2563 14.7094C27.4556 14.7094 29.245 16.4985 29.245 18.6981C29.245 20.8975 27.4556 22.6866 25.2563 22.6866C23.0569 22.6866 21.2676 20.8975 21.2676 18.6981Z" fill="#868686"/>
<path fill-rule="evenodd" clip-rule="evenodd" d="M15.8547 36.02H34.6582C35.13 36.02 35.5129 35.6371 35.5129 35.1653V31.1766C35.5129 28.192 33.0844 25.7636 30.0998 25.7636H20.4131C17.4285 25.7636 15 28.192 15 31.1766V35.1653C15 35.6371 15.3829 36.02 15.8547 36.02ZM33.8035 34.3106H16.7094V31.1766C16.7094 29.1346 18.371 27.473 20.4131 27.473H30.0998C32.1419 27.473 33.8035 29.1346 33.8035 31.1766V34.3106Z" fill="#868686"/>
</svg>
